<svg viewBox="0 0 1434 400" xmlns="http://www.w3.org/2000/svg"><g><g><g><g><g><line x1="39.232001304626465" y1="355.26422926654834" x2="34.232001304626465" y2="355.26422926654834" style="visibility: inherit;" fill="rgb(0, 0, 0)" stroke="rgb(204, 204, 204)" stroke-width="1px"></line><line x1="39.232001304626465" y1="334.4851829553063" x2="34.232001304626465" y2="334.4851829553063" style="visibility: inherit;" fill="rgb(0, 0, 0)" stroke="rgb(204, 204, 204)" stroke-width="1px"></line><line x1="39.232001304626465" y1="319.74221497396536" x2="34.232001304626465" y2="319.74221497396536" style="visibility: inherit;" fill="rgb(0, 0, 0)" stroke="rgb(204, 204, 204)" stroke-width="1px"></line><line x1="39.232001304626465" y1="308.30668058619244" x2="34.232001304626465" y2="308.30668058619244" style="visibility: inherit;" fill="rgb(0, 0, 0)" stroke="rgb(204, 204, 204)" stroke-width="1px"></line><line x1="39.232001304626465" y1="298.9631686627233" x2="34.232001304626465" y2="298.9631686627233" style="visibility: inherit;" fill="rgb(0, 0, 0)" stroke="rgb(204, 204, 204)" stroke-width="1px"></line><line x1="39.232001304626465" y1="291.06334189344784" x2="34.232001304626465" y2="291.06334189344784" style="visibility: inherit;" fill="rgb(0, 0, 0)" stroke="rgb(204, 204, 204)" stroke-width="1px"></line><line x1="39.232001304626465" y1="284.2202006813823" x2="34.232001304626465" y2="284.2202006813823" style="visibility: inherit;" fill="rgb(0, 0, 0)" stroke="rgb(204, 204, 204)" stroke-width="1px"></line><line x1="39.232001304626465" y1="278.1841223514813" x2="34.232001304626465" y2="278.1841223514813" style="visibility: inherit;" fill="rgb(0, 0, 0)" stroke="rgb(204, 204, 204)" stroke-width="1px"></line><line x1="39.232001304626465" y1="272.7846662936094" x2="34.232001304626465" y2="272.7846662936094" style="visibility: inherit;" fill="rgb(0, 0, 0)" stroke="rgb(204, 204, 204)" stroke-width="1px"></line><line x1="39.232001304626465" y1="237.2626520010264" x2="34.232001304626465" y2="237.2626520010264" style="visibility: inherit;" fill="rgb(0, 0, 0)" stroke="rgb(204, 204, 204)" stroke-width="1px"></line><line x1="39.232001304626465" y1="216.48360568978435" x2="34.232001304626465" y2="216.48360568978435" style="visibility: inherit;" fill="rgb(0, 0, 0)" stroke="rgb(204, 204, 204)" stroke-width="1px"></line><line x1="39.232001304626465" y1="201.74063770844336" x2="34.232001304626465" y2="201.74063770844336" style="visibility: inherit;" fill="rgb(0, 0, 0)" stroke="rgb(204, 204, 204)" stroke-width="1px"></line><line x1="39.232001304626465" y1="190.30510332067047" x2="34.232001304626465" y2="190.30510332067047" style="visibility: inherit;" fill="rgb(0, 0, 0)" stroke="rgb(204, 204, 204)" stroke-width="1px"></line><line x1="39.232001304626465" y1="180.96159139720135" x2="34.232001304626465" y2="180.96159139720135" style="visibility: inherit;" fill="rgb(0, 0, 0)" stroke="rgb(204, 204, 204)" stroke-width="1px"></line><line x1="39.232001304626465" y1="173.06176462792592" x2="34.232001304626465" y2="173.06176462792592" style="visibility: inherit;" fill="rgb(0, 0, 0)" stroke="rgb(204, 204, 204)" stroke-width="1px"></line><line x1="39.232001304626465" y1="166.21862341586032" x2="34.232001304626465" y2="166.21862341586032" style="visibility: inherit;" fill="rgb(0, 0, 0)" stroke="rgb(204, 204, 204)" stroke-width="1px"></line><line x1="39.232001304626465" y1="160.18254508595936" x2="34.232001304626465" y2="160.18254508595936" style="visibility: inherit;" fill="rgb(0, 0, 0)" stroke="rgb(204, 204, 204)" stroke-width="1px"></line><line x1="39.232001304626465" y1="154.78308902808743" x2="34.232001304626465" y2="154.78308902808743" style="visibility: inherit;" fill="rgb(0, 0, 0)" stroke="rgb(204, 204, 204)" stroke-width="1px"></line><line x1="39.232001304626465" y1="119.26107473550442" x2="34.232001304626465" y2="119.26107473550442" style="visibility: inherit;" fill="rgb(0, 0, 0)" stroke="rgb(204, 204, 204)" stroke-width="1px"></line><line x1="39.232001304626465" y1="98.48202842426241" x2="34.232001304626465" y2="98.48202842426241" style="visibility: inherit;" fill="rgb(0, 0, 0)" stroke="rgb(204, 204, 204)" stroke-width="1px"></line><line x1="39.232001304626465" y1="83.73906044292136" x2="34.232001304626465" y2="83.73906044292136" style="visibility: inherit;" fill="rgb(0, 0, 0)" stroke="rgb(204, 204, 204)" stroke-width="1px"></line><line x1="39.232001304626465" y1="72.3035260551485" x2="34.232001304626465" y2="72.3035260551485" style="visibility: inherit;" fill="rgb(0, 0, 0)" stroke="rgb(204, 204, 204)" stroke-width="1px"></line><line x1="39.232001304626465" y1="62.96001413167937" x2="34.232001304626465" y2="62.96001413167937" style="visibility: inherit;" fill="rgb(0, 0, 0)" stroke="rgb(204, 204, 204)" stroke-width="1px"></line><line x1="39.232001304626465" y1="55.06018736240395" x2="34.232001304626465" y2="55.06018736240395" style="visibility: inherit;" fill="rgb(0, 0, 0)" stroke="rgb(204, 204, 204)" stroke-width="1px"></line><line x1="39.232001304626465" y1="48.21704615033843" x2="34.232001304626465" y2="48.21704615033843" style="visibility: inherit;" fill="rgb(0, 0, 0)" stroke="rgb(204, 204, 204)" stroke-width="1px"></line><line x1="39.232001304626465" y1="42.18096782043739" x2="34.232001304626465" y2="42.18096782043739" style="visibility: inherit;" fill="rgb(0, 0, 0)" stroke="rgb(204, 204, 204)" stroke-width="1px"></line><line x1="39.232001304626465" y1="36.781511762565515" x2="34.232001304626465" y2="36.781511762565515" style="visibility: inherit;" fill="rgb(0, 0, 0)" stroke="rgb(204, 204, 204)" stroke-width="1px"></line><line x1="39.232001304626465" y1="1.2594974699824775" x2="34.232001304626465" y2="1.2594974699824775" style="visibility: inherit;" fill="rgb(0, 0, 0)" stroke="rgb(204, 204, 204)" stroke-width="1px"></line></g><g transform="translate(29.232001304626465, 0)"><text style="text-anchor: end; visibility: inherit; font-family: &quot;Helvetica Neue&quot;, sans-serif; font-size: 12px; font-weight: 200;" x="0" y="355.26422926654834" dx="0em" dy="0.3em" fill="rgb(50, 49, 63)" stroke="none" stroke-width="1px">0.2</text><text style="text-anchor: end; visibility: hidden; font-family: &quot;Helvetica Neue&quot;, sans-serif; font-size: 12px; font-weight: 200;" x="0" y="334.4851829553063" dx="0em" dy="0.3em" fill="rgb(50, 49, 63)" stroke="none" stroke-width="1px">0.3</text><text style="text-anchor: end; visibility: hidden; font-family: &quot;Helvetica Neue&quot;, sans-serif; font-size: 12px; font-weight: 200;" x="0" y="319.74221497396536" dx="0em" dy="0.3em" fill="rgb(50, 49, 63)" stroke="none" stroke-width="1px">0.4</text><text style="text-anchor: end; visibility: hidden; font-family: &quot;Helvetica Neue&quot;, sans-serif; font-size: 12px; font-weight: 200;" x="0" y="308.30668058619244" dx="0em" dy="0.3em" fill="rgb(50, 49, 63)" stroke="none" stroke-width="1px">0.5</text><text style="text-anchor: end; visibility: hidden; font-family: &quot;Helvetica Neue&quot;, sans-serif; font-size: 12px; font-weight: 200;" x="0" y="298.9631686627233" dx="0em" dy="0.3em" fill="rgb(50, 49, 63)" stroke="none" stroke-width="1px">0.6</text><text style="text-anchor: end; visibility: inherit; font-family: &quot;Helvetica Neue&quot;, sans-serif; font-size: 12px; font-weight: 200;" x="0" y="291.06334189344784" dx="0em" dy="0.3em" fill="rgb(50, 49, 63)" stroke="none" stroke-width="1px">0.7</text><text style="text-anchor: end; visibility: hidden; font-family: &quot;Helvetica Neue&quot;, sans-serif; font-size: 12px; font-weight: 200;" x="0" y="284.2202006813823" dx="0em" dy="0.3em" fill="rgb(50, 49, 63)" stroke="none" stroke-width="1px">0.8</text><text style="text-anchor: end; visibility: hidden; font-family: &quot;Helvetica Neue&quot;, sans-serif; font-size: 12px; font-weight: 200;" x="0" y="278.1841223514813" dx="0em" dy="0.3em" fill="rgb(50, 49, 63)" stroke="none" stroke-width="1px">0.9</text><text style="text-anchor: end; visibility: hidden; font-family: &quot;Helvetica Neue&quot;, sans-serif; font-size: 12px; font-weight: 200;" x="0" y="272.7846662936094" dx="0em" dy="0.3em" fill="rgb(50, 49, 63)" stroke="none" stroke-width="1px">1</text><text style="text-anchor: end; visibility: hidden; font-family: &quot;Helvetica Neue&quot;, sans-serif; font-size: 12px; font-weight: 200;" x="0" y="237.2626520010264" dx="0em" dy="0.3em" fill="rgb(50, 49, 63)" stroke="none" stroke-width="1px">2</text><text style="text-anchor: end; visibility: inherit; font-family: &quot;Helvetica Neue&quot;, sans-serif; font-size: 12px; font-weight: 200;" x="0" y="216.48360568978435" dx="0em" dy="0.3em" fill="rgb(50, 49, 63)" stroke="none" stroke-width="1px">3</text><text style="text-anchor: end; visibility: hidden; font-family: &quot;Helvetica Neue&quot;, sans-serif; font-size: 12px; font-weight: 200;" x="0" y="201.74063770844336" dx="0em" dy="0.3em" fill="rgb(50, 49, 63)" stroke="none" stroke-width="1px">4</text><text style="text-anchor: end; visibility: hidden; font-family: &quot;Helvetica Neue&quot;, sans-serif; font-size: 12px; font-weight: 200;" x="0" y="190.30510332067047" dx="0em" dy="0.3em" fill="rgb(50, 49, 63)" stroke="none" stroke-width="1px">5</text><text style="text-anchor: end; visibility: hidden; font-family: &quot;Helvetica Neue&quot;, sans-serif; font-size: 12px; font-weight: 200;" x="0" y="180.96159139720135" dx="0em" dy="0.3em" fill="rgb(50, 49, 63)" stroke="none" stroke-width="1px">6</text><text style="text-anchor: end; visibility: hidden; font-family: &quot;Helvetica Neue&quot;, sans-serif; font-size: 12px; font-weight: 200;" x="0" y="173.06176462792592" dx="0em" dy="0.3em" fill="rgb(50, 49, 63)" stroke="none" stroke-width="1px">7</text><text style="text-anchor: end; visibility: inherit; font-family: &quot;Helvetica Neue&quot;, sans-serif; font-size: 12px; font-weight: 200;" x="0" y="166.21862341586032" dx="0em" dy="0.3em" fill="rgb(50, 49, 63)" stroke="none" stroke-width="1px">8</text><text style="text-anchor: end; visibility: hidden; font-family: &quot;Helvetica Neue&quot;, sans-serif; font-size: 12px; font-weight: 200;" x="0" y="160.18254508595936" dx="0em" dy="0.3em" fill="rgb(50, 49, 63)" stroke="none" stroke-width="1px">9</text><text style="text-anchor: end; visibility: hidden; font-family: &quot;Helvetica Neue&quot;, sans-serif; font-size: 12px; font-weight: 200;" x="0" y="154.78308902808743" dx="0em" dy="0.3em" fill="rgb(50, 49, 63)" stroke="none" stroke-width="1px">10</text><text style="text-anchor: end; visibility: hidden; font-family: &quot;Helvetica Neue&quot;, sans-serif; font-size: 12px; font-weight: 200;" x="0" y="119.26107473550442" dx="0em" dy="0.3em" fill="rgb(50, 49, 63)" stroke="none" stroke-width="1px">20</text><text style="text-anchor: end; visibility: hidden; font-family: &quot;Helvetica Neue&quot;, sans-serif; font-size: 12px; font-weight: 200;" x="0" y="98.48202842426241" dx="0em" dy="0.3em" fill="rgb(50, 49, 63)" stroke="none" stroke-width="1px">30</text><text style="text-anchor: end; visibility: inherit; font-family: &quot;Helvetica Neue&quot;, sans-serif; font-size: 12px; font-weight: 200;" x="0" y="83.73906044292136" dx="0em" dy="0.3em" fill="rgb(50, 49, 63)" stroke="none" stroke-width="1px">40</text><text style="text-anchor: end; visibility: hidden; font-family: &quot;Helvetica Neue&quot;, sans-serif; font-size: 12px; font-weight: 200;" x="0" y="72.3035260551485" dx="0em" dy="0.3em" fill="rgb(50, 49, 63)" stroke="none" stroke-width="1px">50</text><text style="text-anchor: end; visibility: hidden; font-family: &quot;Helvetica Neue&quot;, sans-serif; font-size: 12px; font-weight: 200;" x="0" y="62.96001413167937" dx="0em" dy="0.3em" fill="rgb(50, 49, 63)" stroke="none" stroke-width="1px">60</text><text style="text-anchor: end; visibility: hidden; font-family: &quot;Helvetica Neue&quot;, sans-serif; font-size: 12px; font-weight: 200;" x="0" y="55.06018736240395" dx="0em" dy="0.3em" fill="rgb(50, 49, 63)" stroke="none" stroke-width="1px">70</text><text style="text-anchor: end; visibility: hidden; font-family: &quot;Helvetica Neue&quot;, sans-serif; font-size: 12px; font-weight: 200;" x="0" y="48.21704615033843" dx="0em" dy="0.3em" fill="rgb(50, 49, 63)" stroke="none" stroke-width="1px">80</text><text style="text-anchor: end; visibility: inherit; font-family: &quot;Helvetica Neue&quot;, sans-serif; font-size: 12px; font-weight: 200;" x="0" y="42.18096782043739" dx="0em" dy="0.3em" fill="rgb(50, 49, 63)" stroke="none" stroke-width="1px">90</text><text style="text-anchor: end; visibility: hidden; font-family: &quot;Helvetica Neue&quot;, sans-serif; font-size: 12px; font-weight: 200;" x="0" y="36.781511762565515" dx="0em" dy="0.3em" fill="rgb(50, 49, 63)" stroke="none" stroke-width="1px">100</text><text style="text-anchor: end; visibility: hidden; font-family: &quot;Helvetica Neue&quot;, sans-serif; font-size: 12px; font-weight: 200;" x="0" y="1.2594974699824775" dx="0em" dy="0.3em" fill="rgb(50, 49, 63)" stroke="none" stroke-width="1px">200</text></g><line x1="39.232001304626465" y1="0" x2="39.232001304626465" y2="374.5999984741211" fill="rgb(0, 0, 0)" stroke="rgb(204, 204, 204)" stroke-width="1px"></line></g></g><g transform="translate(39, 0)" clip-path="url(#clip_0)"><clipPath id="clip_0"><rect width="1394" height="374"></rect></clipPath><g><g><g><line x1="0" y1="0" x2="0" y2="374.5999984741211" fill="rgb(0, 0, 0)" stroke="rgb(60, 60, 60)" stroke-width="1px" opacity="0.25"></line><line x1="116.23066655794779" y1="0" x2="116.23066655794779" y2="374.5999984741211" fill="rgb(0, 0, 0)" stroke="rgb(60, 60, 60)" stroke-width="1px" opacity="0.25"></line><line x1="232.46133311589557" y1="0" x2="232.46133311589557" y2="374.5999984741211" fill="rgb(0, 0, 0)" stroke="rgb(60, 60, 60)" stroke-width="1px" opacity="0.25"></line><line x1="348.6919996738434" y1="0" x2="348.6919996738434" y2="374.5999984741211" fill="rgb(0, 0, 0)" stroke="rgb(60, 60, 60)" stroke-width="1px" opacity="0.25"></line><line x1="464.92266623179114" y1="0" x2="464.92266623179114" y2="374.5999984741211" fill="rgb(0, 0, 0)" stroke="rgb(60, 60, 60)" stroke-width="1px" opacity="0.25"></line><line x1="581.153332789739" y1="0" x2="581.153332789739" y2="374.5999984741211" fill="rgb(0, 0, 0)" stroke="rgb(60, 60, 60)" stroke-width="1px" opacity="0.25"></line><line x1="697.3839993476868" y1="0" x2="697.3839993476868" y2="374.5999984741211" fill="rgb(0, 0, 0)" stroke="rgb(60, 60, 60)" stroke-width="1px" opacity="0.25"></line><line x1="813.6146659056346" y1="0" x2="813.6146659056346" y2="374.5999984741211" fill="rgb(0, 0, 0)" stroke="rgb(60, 60, 60)" stroke-width="1px" opacity="0.25"></line><line x1="929.8453324635823" y1="0" x2="929.8453324635823" y2="374.5999984741211" fill="rgb(0, 0, 0)" stroke="rgb(60, 60, 60)" stroke-width="1px" opacity="0.25"></line><line x1="1046.0759990215302" y1="0" x2="1046.0759990215302" y2="374.5999984741211" fill="rgb(0, 0, 0)" stroke="rgb(60, 60, 60)" stroke-width="1px" opacity="0.25"></line><line x1="1162.306665579478" y1="0" x2="1162.306665579478" y2="374.5999984741211" fill="rgb(0, 0, 0)" stroke="rgb(60, 60, 60)" stroke-width="1px" opacity="0.25"></line><line x1="1278.5373321374257" y1="0" x2="1278.5373321374257" y2="374.5999984741211" fill="rgb(0, 0, 0)" stroke="rgb(60, 60, 60)" stroke-width="1px" opacity="0.25"></line><line x1="1394.7679986953735" y1="0" x2="1394.7679986953735" y2="374.5999984741211" fill="rgb(0, 0, 0)" stroke="rgb(60, 60, 60)" stroke-width="1px" opacity="0.25"></line></g><g><line x1="0" y1="355.26422926654834" x2="1394.7679986953735" y2="355.26422926654834" fill="rgb(0, 0, 0)" stroke="rgb(60, 60, 60)" stroke-width="1px" opacity="0.25"></line><line x1="0" y1="334.4851829553063" x2="1394.7679986953735" y2="334.4851829553063" fill="rgb(0, 0, 0)" stroke="rgb(60, 60, 60)" stroke-width="1px" opacity="0.25"></line><line x1="0" y1="319.74221497396536" x2="1394.7679986953735" y2="319.74221497396536" fill="rgb(0, 0, 0)" stroke="rgb(60, 60, 60)" stroke-width="1px" opacity="0.25"></line><line x1="0" y1="308.30668058619244" x2="1394.7679986953735" y2="308.30668058619244" fill="rgb(0, 0, 0)" stroke="rgb(60, 60, 60)" stroke-width="1px" opacity="0.25"></line><line x1="0" y1="298.9631686627233" x2="1394.7679986953735" y2="298.9631686627233" fill="rgb(0, 0, 0)" stroke="rgb(60, 60, 60)" stroke-width="1px" opacity="0.25"></line><line x1="0" y1="291.06334189344784" x2="1394.7679986953735" y2="291.06334189344784" fill="rgb(0, 0, 0)" stroke="rgb(60, 60, 60)" stroke-width="1px" opacity="0.25"></line><line x1="0" y1="284.2202006813823" x2="1394.7679986953735" y2="284.2202006813823" fill="rgb(0, 0, 0)" stroke="rgb(60, 60, 60)" stroke-width="1px" opacity="0.25"></line><line x1="0" y1="278.1841223514813" x2="1394.7679986953735" y2="278.1841223514813" fill="rgb(0, 0, 0)" stroke="rgb(60, 60, 60)" stroke-width="1px" opacity="0.25"></line><line x1="0" y1="272.7846662936094" x2="1394.7679986953735" y2="272.7846662936094" fill="rgb(0, 0, 0)" stroke="rgb(60, 60, 60)" stroke-width="1px" opacity="0.25"></line><line x1="0" y1="237.2626520010264" x2="1394.7679986953735" y2="237.2626520010264" fill="rgb(0, 0, 0)" stroke="rgb(60, 60, 60)" stroke-width="1px" opacity="0.25"></line><line x1="0" y1="216.48360568978435" x2="1394.7679986953735" y2="216.48360568978435" fill="rgb(0, 0, 0)" stroke="rgb(60, 60, 60)" stroke-width="1px" opacity="0.25"></line><line x1="0" y1="201.74063770844336" x2="1394.7679986953735" y2="201.74063770844336" fill="rgb(0, 0, 0)" stroke="rgb(60, 60, 60)" stroke-width="1px" opacity="0.25"></line><line x1="0" y1="190.30510332067047" x2="1394.7679986953735" y2="190.30510332067047" fill="rgb(0, 0, 0)" stroke="rgb(60, 60, 60)" stroke-width="1px" opacity="0.25"></line><line x1="0" y1="180.96159139720135" x2="1394.7679986953735" y2="180.96159139720135" fill="rgb(0, 0, 0)" stroke="rgb(60, 60, 60)" stroke-width="1px" opacity="0.25"></line><line x1="0" y1="173.06176462792592" x2="1394.7679986953735" y2="173.06176462792592" fill="rgb(0, 0, 0)" stroke="rgb(60, 60, 60)" stroke-width="1px" opacity="0.25"></line><line x1="0" y1="166.21862341586032" x2="1394.7679986953735" y2="166.21862341586032" fill="rgb(0, 0, 0)" stroke="rgb(60, 60, 60)" stroke-width="1px" opacity="0.25"></line><line x1="0" y1="160.18254508595936" x2="1394.7679986953735" y2="160.18254508595936" fill="rgb(0, 0, 0)" stroke="rgb(60, 60, 60)" stroke-width="1px" opacity="0.25"></line><line x1="0" y1="154.78308902808743" x2="1394.7679986953735" y2="154.78308902808743" fill="rgb(0, 0, 0)" stroke="rgb(60, 60, 60)" stroke-width="1px" opacity="0.25"></line><line x1="0" y1="119.26107473550442" x2="1394.7679986953735" y2="119.26107473550442" fill="rgb(0, 0, 0)" stroke="rgb(60, 60, 60)" stroke-width="1px" opacity="0.25"></line><line x1="0" y1="98.48202842426241" x2="1394.7679986953735" y2="98.48202842426241" fill="rgb(0, 0, 0)" stroke="rgb(60, 60, 60)" stroke-width="1px" opacity="0.25"></line><line x1="0" y1="83.73906044292136" x2="1394.7679986953735" y2="83.73906044292136" fill="rgb(0, 0, 0)" stroke="rgb(60, 60, 60)" stroke-width="1px" opacity="0.25"></line><line x1="0" y1="72.3035260551485" x2="1394.7679986953735" y2="72.3035260551485" fill="rgb(0, 0, 0)" stroke="rgb(60, 60, 60)" stroke-width="1px" opacity="0.25"></line><line x1="0" y1="62.96001413167937" x2="1394.7679986953735" y2="62.96001413167937" fill="rgb(0, 0, 0)" stroke="rgb(60, 60, 60)" stroke-width="1px" opacity="0.25"></line><line x1="0" y1="55.06018736240395" x2="1394.7679986953735" y2="55.06018736240395" fill="rgb(0, 0, 0)" stroke="rgb(60, 60, 60)" stroke-width="1px" opacity="0.25"></line><line x1="0" y1="48.21704615033843" x2="1394.7679986953735" y2="48.21704615033843" fill="rgb(0, 0, 0)" stroke="rgb(60, 60, 60)" stroke-width="1px" opacity="0.25"></line><line x1="0" y1="42.18096782043739" x2="1394.7679986953735" y2="42.18096782043739" fill="rgb(0, 0, 0)" stroke="rgb(60, 60, 60)" stroke-width="1px" opacity="0.25"></line><line x1="0" y1="36.781511762565515" x2="1394.7679986953735" y2="36.781511762565515" fill="rgb(0, 0, 0)" stroke="rgb(60, 60, 60)" stroke-width="1px" opacity="0.25"></line><line x1="0" y1="1.2594974699824775" x2="1394.7679986953735" y2="1.2594974699824775" fill="rgb(0, 0, 0)" stroke="rgb(60, 60, 60)" stroke-width="1px" opacity="0.25"></line></g></g></g><g><g><line x1="116.23066655794779" y1="0" x2="116.23066655794779" y2="374.5999984741211" fill="rgb(0, 0, 0)" stroke="rgb(153, 153, 153)" stroke-width="1.5px"></line></g></g><g><g><g><g><g><path style="fill: none;" stroke="rgb(238, 51, 119)" stroke-width="2px" d="M118.6715105556647,350.6025617261891L118.9039718887806,362.06911048506737L119.25266388845445,289.32261726422763L119.6013558881283,274.556092157438L119.83381722124417,317.84081673012685L120.06627855436007,328.17872507825376L120.29873988747596,391.86040926869185L120.53120122059187,315.2193647987688L120.87989322026571,278.7843355763258L121.11235455338159,288.65898678369894L121.34481588649749,298.4659461194051L121.57727721961339,368.55017450803837L121.80973855272929,311.176388640876L122.04219988584518,320.84448126070856L122.39089188551903,293.5204898396034L122.62335321863493,289.32606098069687L122.85581455175083,286.0979580232596L123.20450655142466,283.57102090945614L123.7856598842144,251.22289227872483L124.0181212173303,268.16746050415406L124.2505825504462,261.428601295871L124.48304388356208,270.9563437292868L124.715505216678,280.4772111295101L124.94796654979388,289.99237294258285L125.18042788290977,276.36790546181123L125.41288921602568,315.3300612756201L125.64535054914157,305.18221262350164L125.99404254881541,298.05549581695794L126.22650388193131,292.807314484583L126.45896521504721,288.8226042640416L126.6914265481631,298.3174441958153L126.92388788127899,307.810993128777L127.15634921439488,317.3034695095463L127.38881054751079,326.7950547843262L127.62127188062668,296.64535632374293L127.85373321374256,359.66573779497713M133.08411320885023,347.60731167411984L133.31657454196613,305.2254058361767L133.549035875082,389.1490205368113L133.78149720819792,398.6362693195962L134.13018920787175,318.5644867245597L134.59511187410354,328.0517222698813M137.26841720493636,329.1921496366963L137.73333987116814,297.7456330808133L137.96580120428402,307.23284228844057L138.19826253739993,316.72005095465596L138.43072387051583,291.75678698646516L138.6631852036317,319.1205517002512M139.12810786986353,364.285624911747L139.3605692029794,310.6799123568931L139.59303053609528,301.98013809007534L139.8254918692112,376.52170437935854M141.5689518675804,324.67452541945386L141.80141320069632,376.21031183108425L142.0338745338122,385.6975180007674L142.2663358669281,341.6661688493801L142.498797200044,428.71709868235524L142.7312585331599,322.68983606717757M143.66110386562346,415.1572937626892L143.89356519873937,321.08571297781805L144.24225719841323,309.0501056841727L144.70717986464498,318.5373117141984L144.9396411977609,307.3614482495231L145.1721025308768,286.76565468427816L145.40456386399268,312.1818034175184L145.63702519710858,303.0287167013676L145.8694865302245,312.51592271568603L146.10194786334037,322.003128728262L146.68310119613014,265.04377306878126L146.91556252924602,259.1621629134441L147.1480238623619,254.74091063912488L147.3804851954778,257.3780014462121L147.72917719515166,247.76371440032983L148.54279186105728,240.9523237552829L148.8914838607311,250.43952976163564L149.24017586040497,253.59545583734487L149.5888678600788,256.37447140202556L149.82132919319469,283.7966536205692L150.05379052631062,281.7615055091147L150.2862518594265,305.4684540760043L150.51871319254238,298.27084097513716L151.09986652533215,272.1540398952677L151.33232785844802,281.641245899809L151.5647891915639,305.30979617720857L151.91348119123776,298.15622279603843L152.4946345240275,257.3476682153915L152.9595571902593,247.74281741172757L153.1920185233752,251.2049563532347L153.54071052304906,260.6921623574184L154.23809452239672,235.59502062468093L154.47055585551263,240.27106395108115L154.7030171886285,239.75008004700263L154.93547852174441,244.03974277704614L155.16793985486032,259.8492269059404L155.74909318765003,239.49897587366107L156.0977851873239,234.81028872456025L156.33024652043977,239.55616296075647L156.56270785355568,239.1612807019629L156.7951691866716,238.8354326808732L157.02763051978746,238.56622035796073L157.6087838525772,234.10138738353436L157.95747585225106,238.9095120283751L158.18993718536694,238.6274500827567L158.42239851848282,243.0243218941692L158.65485985159876,242.00397768191257L159.23601318438847,228.77756821131305L159.8171665171782,219.9046705385399L160.04962785029412,225.8063977369838L160.28208918341002,231.28719251898883L160.63078118308385,232.2493699992743L160.86324251619973,233.0629161270806L161.2119345158736,229.85708130974777L161.67685718210538,227.3376078783069L161.9093185152213,228.8856611520041L162.1417798483372,230.20865143439198L162.7229331811269,224.14817937868855L162.9553945142428,229.75182347737973L163.4203171804746,230.9463330548125L163.6527785135905,231.96060053870949L163.88523984670638,236.9520086715649L164.1177011798223,246.43921467557345L164.46639317949612,255.9264206795819L164.81508517916998,246.75940147117774L165.04754651228586,270.6337311749728L165.39623851195972,256.51616434762275L165.74493051163356,258.92774199115905L166.3260838444233,261.0218730524905L167.13969851032894,235.76265499249865L167.37215984344482,236.01309141463577L167.72085184311865,236.22213920740325L167.95331317623456,257.09890038404603L168.30200517590842,266.58610638805413L168.5344665090243,267.5824111611373L168.7669278421402,277.0696171651455L168.9993891752561,299.36247470685436L169.231850508372,293.78994535952006L169.46431184148787,303.2771513635282L170.16169584083556,252.95923015254039L170.51038784050942,255.81588225981127L170.9753105067412,241.7259410627281L171.2077718398571,240.9438222638295L171.78892517264683,240.3028413038322L172.1376171723207,244.53893130453554L172.71877050511043,234.32463240679354L172.9512318382263,254.73986441088354L173.1836931713422,251.33568602194794L173.53238517101605,248.66930729090217L173.76484650413195,252.0278500950498L173.99730783724786,268.985093920335L174.22976917036374,262.05282206376853L174.81092250315348,245.57372306806815L175.04338383626938,249.27198064285736L175.2758451693853,258.75918664686543L175.62453716905912,254.43342994311905L176.32192116840682,240.848948084309L176.7868438346386,240.22496790253024L177.36799716742834,231.3484971630238L177.94915050021805,224.987286983897L178.18161183333396,230.52922570897508L178.53030383300782,231.6068370781045L179.11145716579756,236.62786381095995L179.57637983202935,228.80837800742674L179.92507183170318,234.05720662359863L180.73868649760882,217.3054137304198L181.08737849728266,226.7926197344279L181.4360704969565,224.8982449949426L182.01722382974626,217.162870451567L182.59837716253597,223.24531779803078L183.06329982876778,218.91763649227318L183.41199182844161,224.88546464284306L183.76068382811548,223.36529603731955L183.99314516123135,225.4648568086465L184.22560649434726,230.97125647144276L184.92299049369493,221.42787807708808L185.3879131599267,217.52386740291493L186.2015278258324,209.21869476429734L186.43398915894824,218.70590076830544L187.13137315829593,210.05117241818377L187.36383449141184,216.56223739850586L187.59629582452774,219.5242862115897L187.9449878242016,218.9975762126547L188.17744915731745,228.48478221666278L188.40991049043336,229.86661252553708L188.6423718235493,231.0439559298676L188.87483315666515,236.11172485648567L189.45598648945492,228.43963214516492L189.68844782257082,237.92683814917302L190.50206248847644,222.7521274205005L190.73452382159235,224.93357954436487L191.08321582126618,226.81979205434556L191.6643691540559,221.62471342569592L191.8968304871718,235.10410465897587L192.24552248684566,231.4434369262368L192.47798381996157,232.3816389474854L192.71044515307744,233.17456798794572L193.05913715275128,229.94421686706818L193.29159848586718,239.43142287107628L193.64029048554104,234.75905207479084L193.98898248521488,231.17626277873552L194.91882781767848,212.7998240534854L195.4999811504682,210.75516872793622L195.7324424835841,214.3778244482184L195.9649038167,217.59618052660335L196.19736514981588,220.43351393559388L196.5460571494897,219.74423662968192L197.0109798157215,222.31530184559116L197.35967181539533,221.28196881760513L197.7083638150692,234.73369279453325L198.05705581474302,235.1524187088692L198.40574781441686,231.48081405512997L198.75443981409072,228.61792074633573L199.10313181376455,226.35480236693815L199.33559314688046,228.04274951480593L199.56805447999636,237.529955518814L199.91674647967022,233.31020559132025L200.26543847934406,230.05001530471674L200.73036114557584,231.19986373264314L200.96282247869175,236.25473303098553L201.77643714459737,218.61102824056567L202.24135981082915,215.3411912127498L202.70628247706097,212.77420564205164L203.0549744767348,222.2614116460597L203.40366647640866,228.00042755690012L203.7523584760825,229.45282801005328L204.3335118088722,220.3756640949808L205.14712647477788,208.6764500999481L205.37958780789373,218.16365610395619L205.61204914100966,220.9315944394205L206.07697180724142,217.14128143402033L208.05289313872655,186.9892379780407L208.4015851384004,190.92660087960257L208.75027713807424,196.35882005710502L209.91258380365372,186.53156363631348L210.14504513676962,192.28521014205694L210.37750646988553,197.61279617075303L211.19112113579115,192.54877079828418L212.1209664682547,187.03918780170812L212.8183504676024,185.96012934220957L213.51573446695008,185.08040045607842L214.32934913285575,184.36066262863903L215.14296379876137,185.31808524626373L218.16496112926802,162.30031062796076L220.14088246075312,154.53139515487197L221.76811179256438,153.7184705338626L222.0005731256803,163.20567653787066L225.0225704561869,147.8682660607599L226.99849178767204,143.8276845380334L227.57964512046178,150.05436375846188L228.39325978636742,154.9973711029234L228.8581824525992,160.46045621516717L232.11264111622174,144.71918950335495L232.92625578212738,150.09395360966707L234.4372544473807,148.5050727039847L235.71579177951816,151.91317095901624L238.97025044314069,139.32774126250018L239.55140377593042,146.5529940686038L240.13255710872014,153.4443023651592L242.92209310611088,142.99638032669029L244.20063043824834,144.0995144999162L246.75770510252318,138.96429494816982L248.15247310121853,140.002754912902L249.77970243302983,139.57810653860471L250.36085576581954,145.33146554657526L250.82577843205135,151.46416225537598L251.87185443107288,152.83728601293583L252.10431576418875,162.32449201694388L252.80169976353645,166.10441188856618L255.47500509436927,152.04007601543503L256.6373117599487,154.17729653839018L257.68338775897024,155.14403808380726L258.9619250911077,154.2190179624388L259.6593090904554,159.7404730394992L260.472923756361,163.7866610543071L261.75146108849844,163.15948964604954L265.2383810852369,144.90894387297328L266.2844570842584,147.18814158166538L267.6792250829538,146.8884132080624L271.2823757462502,134.2426537568335L273.02583574461937,135.3748134802916L275.00175707610447,135.1405633682828L278.4886770728429,126.81315752388437L282.3242890692552,120.35841508818444L284.7651330669721,120.61401451151033L293.7148943919341,101.30741677870725L294.2960477247238,108.87937682069855L296.7368917224407,110.85896284345534L302.3159637172222,102.70049587522868L304.4081157152653,105.79686410204965L306.50026771330835,109.24322142565563L307.197651712656,116.2213829808203L312.66049304087954,106.76548082800235L313.4741077067852,113.45562971502187L316.3798743707339,112.45965263042444L321.9589463655154,103.8297215307798L323.35371436421076,108.87110664414087L327.4217876937389,105.96495765571694L328.35163302620253,112.32984457640748L335.79039568591116,99.8705858033976L344.6239263443152,88.60582411218684L354.6197636682987,79.58252150225024L360.19883566308016,78.8442573503662L370.19467298706377,72.99041614159188L373.6815929838022,76.60236531553363L376.4711289811929,80.9182056745629L386.4669663051764,74.15925771751284L390.9999623009364,75.95883440349348L391.4648849671682,85.00027701565404L401.4607222911517,77.09975845919456L404.1340276219845,81.68367451352964L414.129864945968,75.08005160745597L424.1257022699515,69.92848377343893L434.12153959393504,66.00941332046017L439.70061158871647,67.47480180839244L443.07130091889695,72.08157429002875L444.5822995841503,79.33520290112648L454.57813690813384,73.35390145126178L464.57397423211734,68.62583855077719L474.56981155610083,65.0036911784361L484.5656488800843,62.17700698369623L494.5614862040678,59.941131143815426L504.5573235280514,58.154572916744144L514.5531608520349,56.71590715167889L524.5489981760184,55.550356462530544L534.5448355000019,54.601552831283925L540.5888301610152,57.0813391393894L550.5846674849987,55.7741830342855L560.5805048089821,54.78406722992298L570.2276501332918,54.167340930137414L580.2234874572754,53.35697673060423L585.1051754527092,57.21516713654057L595.1010127766928,56.142222269111414L605.0968501006762,55.08385614108926L615.0926874246597,54.220683757982385L625.0885247486432,53.51428549630299L635.0843620726267,52.93458686085728L645.0801993966103,52.457796504680516L655.0760367205938,52.06493085718341L665.0718740445773,51.74073529612542L675.0677113685608,51.472880354707854L685.0635486925443,51.25135307377241L695.0593860165278,51.06798964072988L705.0552233405112,50.91611217746555L707.4960673382282,57.66541480921006L717.4919046622117,56.50832570394732L727.4877419861951,55.38167123268403L737.4835793101788,54.46390509980796L747.4794166341624,53.7135501355375L757.4752539581458,53.09825641177264L758.7537912902833,61.10530517942476L768.7496286142667,59.28521801498209L778.7454659382503,57.627519920492944L788.7413032622337,56.28963096973541L798.7371405862173,55.20381678935246L808.7329779102007,54.318685070360914L818.7288152341843,53.594595867000805L828.7246525581677,53.00056488487235L838.7204898821514,52.51211032759329L840.9288725467522,59.44600228455289L850.9247098707358,57.68907084656513L860.9205471947192,56.33945605479926L870.9163845187028,55.24434972071634L876.2629951803684,58.38862568162824L886.2588325043519,56.833674387377926L896.2546698283354,55.64599972391136L906.2505071523191,54.679561002484036L916.2463444763025,53.89008800115681L926.2421818002861,53.243163842417744L936.2380191242695,52.71171399387845L937.400325789849,60.86811356194556L947.3961631138325,59.094902207964935L957.392000437816,57.47434585142031L967.3878377617995,56.16558808028401L977.383675085783,55.102875434832924L987.3795124097664,54.23622428518212L997.37534973375,53.52702253731462L1007.3711870577334,52.945052055503425L1017.3670243817171,52.46641239092247L1027.3628617057007,52.07203587633438L1037.3586990296842,51.7466022631541L1047.3545363536675,51.477730340154835L1057.350373677651,51.255365994565295L1067.3462110016346,51.07131244515915L1073.5064363292058,53.875654548986404L1083.5022736531894,53.408320343403034L1093.498110977173,52.84750423962771L1103.4939483011565,52.38609023261506L1113.4897856251398,52.00579075098659L1123.4856229491234,51.69189487608213L1133.481460273107,51.432502211018175L1143.4772975970905,51.21794129710031L1153.4731349210738,51.040322069992385L1163.4689722450573,50.893187403051L1173.464809569041,50.77123905714387L1178.6951895641484,54.53454510402145L1188.691026888132,53.70483394170975L1198.6868642121158,53.091099589591295L1208.682701536099,52.586619345122585L1218.6785388600827,52.171141684919746L1228.6743761840662,51.828424065747356L1238.6702135080498,51.54535909588219L1248.666050832033,51.3113157929601L1258.6618881560166,51.117635694103L1267.4954188144206,51.6461771661626L1277.4912561384042,51.300794201250426L1287.4870934623877,51.10892507932539L1297.4829307863713,50.95002653899422" fill="none"></path></g><g><path style="fill: none;" stroke="rgb(0, 119, 187)" stroke-width="2px" d="M117.50920389008523,292.43809199995525L118.09035722287496,270.2564654373834L118.6715105556647,237.38193096578516L119.02020255533854,243.70442767649863L119.6013558881283,248.80426915444636L120.41497055403391,229.96961046109053L120.87989322026571,231.3509241782215L121.11235455338159,242.42672613959908L121.34481588649749,242.47126162661195L121.57727721961339,267.9160009165884L122.04219988584518,248.9241170727312L122.27466121896109,259.1076690949395L122.50712255207698,255.76345001176392L122.85581455175083,247.3628412885962L123.0882758848667,272.58498440783455L123.43696788454055,272.61970685507754L123.66942921765646,282.37111842142497L123.90189055077235,282.68542627523794L124.13435188388824,273.19280559657324L124.36681321700415,274.9225031330344L124.715505216678,274.5505296797337L124.94796654979388,267.5083594000131L125.29665854946772,277.0809712701936L125.76158121569952,276.3240631142154L125.99404254881541,315.473160007675L126.34273454848926,293.57220485421L126.57519588160514,321.859175585956L126.80765721472105,331.38004298617926L127.04011854783694,340.895204799252L127.62127188062668,302.62329112487896L127.85373321374256,312.1297846831375L128.2024252134164,291.7874847548635L128.55111721309027,301.28800159390437L128.78357854620617,314.5619240618601L129.01603987932205,307.99904854361887L129.48096254555384,300.0802168071913L130.17834654490153,259.35956166234195L130.41080787801744,288.10565357091036L130.64326921113332,300.48953108592957L130.87573054424922,297.35047999626704L131.57311454359692,263.83963117428425L131.8055758767128,266.7640612821982L132.0380372098287,261.80973189438964L132.2704985429446,273.0098645314979L132.5029598760605,282.49851222962104L132.73542120917637,326.66465515542654L132.96788254229227,342.49502594611425L133.31657454196613,432.614667030221L133.66526654163997,327.92661075019777L134.01395854131383,317.4201976321023L134.2464198744297,361.0074767213726L134.59511187410354,370.4950772119503L134.82757320721944,396.37561040293974M135.75741853968302,319.2826370744901L136.10611053935685,283.67220696953893L136.57103320558866,293.15954287865213L136.80349453870454,302.64685683355214L137.1521865383784,296.21781802835363L137.6171092046102,282.31875998842935L137.84957053772607,273.0863523442215L138.08203187084197,266.5066769364845L138.31449320395788,275.9939257192693L138.54695453707376,268.61538672532254L138.77941587018967,288.7423403030523L139.12810786986353,268.7528168537068L139.3605692029794,288.9115116310318L139.94172253576914,268.8479361565197L140.29041453544298,263.37492261925337L140.63910653511684,264.8487052069659L140.87156786823275,276.1531622648018L141.10402920134862,314.84216160706444L141.3364905344645,456.4794676068091L141.68518253413836,308.69127951651615L142.15010520037015,289.8626937010723L142.38256653348606,288.8644212783263L142.84748919971784,275.6727536855765L143.31241186594963,285.15996235179193L143.54487319906553,310.0030550069067L143.7773345321814,347.4439637028785L144.12602653185527,356.93117123461053L144.4747185315291,312.0168205865747L144.70717986464498,350.9697002722273L145.1721025308768,282.77211552107275L145.52079453055063,292.2593222536134L145.8694865302245,290.80906638887325L146.21817852989832,289.6343634096427L146.56687052957216,316.1375716930951L147.26425452891985,257.907772680825L147.6129465285937,275.85217784231844L147.8454078617096,285.3393840862403L148.65902252761524,242.67238732496236L148.8914838607311,247.7241909145573L149.12394519384702,264.0377300177823L149.35640652696293,259.740515325779L149.5888678600788,269.2277214248607L149.93755985975264,256.8791314460662L150.2862518594265,248.48650299903034L150.86740519221624,241.47719464980221L151.21609719189007,245.5977229979678L151.79725052467984,244.09045692643411L152.02971185779572,259.9066036240796L152.2621731909116,288.884398959702L153.07578785681724,267.2536993590714L153.8894025227229,239.7322538771058L154.12186385583877,255.00213108555172L154.7030171886285,257.60646526759064L155.16793985486032,243.8239747262078L155.4004011879762,259.60519580633206L155.6328625210921,277.8601993274202L155.98155452076594,276.96636063867743L156.6789385201136,244.22057649423698L156.91139985322954,267.2983276661772L157.26009185290337,255.6109238124651L157.6087838525772,265.09812981929474L157.8412451856931,274.58533582564746L158.18993718536694,274.2765453890848L159.0035518512726,247.0542596071773L159.35224385094642,250.5923188632538L160.04962785029412,238.36721026697802L160.28208918341002,239.06823818527903L160.86324251619973,227.58577719071988L161.4443958489895,219.67972189145672L161.67685718210538,237.1533616982647L162.37424118145307,229.18271823657702L162.60670251456895,231.22596972244344L162.9553945142428,240.7131757267575L163.18785584735872,251.32749151203768L163.6527785135905,248.66284278680808L163.88523984670638,259.4687425015407L164.1177011798223,277.6983247285767L164.35016251293817,289.53265329241924L164.69885451261203,277.9831356179512L164.9313158457279,278.985317617735L165.97739184474943,231.83377417588608L166.20985317786534,233.51048852184857L166.44231451098125,242.99769452590473L166.79100651065508,246.96501266964327L167.023467843771,256.45221867368457L168.0695438427925,223.22719879077607L168.5344665090243,225.3452771829638L168.7669278421402,227.89084965684867L168.9993891752561,237.3780556608726L169.58054250804582,226.45697834653316L169.81300384116173,245.16735552044776L170.51038784050942,243.7429059222409L171.32400250641504,223.54617938582078L171.90515583920478,225.62141985702078L172.1376171723207,235.10862586103406L172.3700785054366,244.59583186504648L172.60253983855247,267.78808842153825L172.9512318382263,268.5990333130177L173.29992383790017,288.72214440603636L173.76484650413195,261.30442870030043L174.46223050347962,236.75636302983338L174.69469183659552,246.24356903384293L175.2758451693853,236.3223786755982L175.856998502175,225.7456907065871L176.0894598352909,232.00680769806996L176.90307450119653,222.13996152568257L177.36799716742834,218.6703699304518L177.94915050021805,213.17521709890758L178.53030383300782,209.01829663459804L178.76276516612373,218.50550263860643L179.34391849891344,213.05209273045222L179.57637983202935,217.00131350796272L180.1575331648191,223.0941302279718L181.08737849728266,213.09138034950357L181.31983983039856,222.57858635351178L183.1795304953257,191.51167814380173L183.6444531615575,193.47042347019814L184.69052916057902,189.39961825825844L185.15545182681083,194.94641882744844L185.5041438264847,202.2009486211447L185.85283582615853,214.38703921235805L186.66645049206414,209.4385700845987L187.015142491738,218.92577608860682L187.36383449141184,219.1089532052148L187.59629582452774,228.5961592092229L188.06121849075953,229.96168125758473L188.29367982387544,239.44888726159283L188.75860249010722,239.07280263257525L189.33975582289696,235.31383344081488L189.57221715601284,236.48402439514794L189.92090915568667,242.02142565858136L190.15337048880258,242.12914032820777L190.50206248847644,246.18447693133595L193.05913715275128,189.48514574289464L193.64029048554104,193.16066499737727L194.22144381833078,193.030825074602L194.45390515144666,198.70642029905665L195.38375048391026,191.91947322004805L195.7324424835841,199.71403054457375L196.19736514981588,200.471666617933L196.89474914916354,200.68392834582636L197.7083638150692,195.22337306434355L198.173286481301,200.31574493427885L198.8706704806487,198.88862591270575L199.21936248032253,205.96875871685148L199.56805447999636,212.70169713274677L200.03297714622815,211.19494503424158L201.31151447836558,198.21325900561231L202.24135981082915,194.85915755488452L202.8225131436189,194.43467989657645L203.86858914264045,191.8943846800281L204.21728114231428,199.2753836711604L204.5659731419881,202.2426330343528L204.91466514166197,204.84623144916512L205.2633571413358,211.6373013306659L205.7282798075676,215.1638357226911L207.5879704724948,191.08967238117057L209.91258380365372,169.9509559299824L210.26127580332755,175.65775601702515L211.30735180234907,172.93838652046747L212.23719713481267,171.98078735911565L212.46965846792855,178.90891820733165L215.84034779810906,156.07314206914182L216.77019313057264,157.8326171023278L217.93249979615211,159.15693497287748L218.97857579517364,159.5184613558557L219.5597291279634,165.9009383757803L220.25711312731107,170.45455345809052L227.57964512046178,129.2713441524216L236.76186777853968,106.29107105395724L241.41109444085757,102.37127328311163L251.40693176484106,88.88505047144275L261.4027690888246,79.94073431880247L271.3986064128081,73.5376905014636L276.62898640791576,74.35799992125897L279.4185224053065,78.91893905417436L281.97559706958134,83.48044610895744L282.44051973581315,92.45177239265479L286.2761317322254,92.70343117355424L293.0175103925864,87.47393473230568L295.5745850568612,91.64195319218567L305.5704223808447,81.78234073003364L310.1034183766047,82.44957420885316L311.9631090415319,88.49768336180335L318.8207183684508,83.69949343241603L324.51602102979024,82.30264925635817L334.5118583537738,75.19170888118254L335.0930116865635,83.70035226956247L337.3013943511645,88.9422786514312L339.62600768232346,93.01552129536515L349.62184500630696,83.10351975231617L357.87422233192126,77.6620847575598L367.87005965590475,71.76337483673296L377.86589697988825,67.41609040918564L384.25858364057547,67.62550769097811L394.25442096455896,64.44689450651026L398.554955627203,67.80529348132535L402.97172095640497,70.55317385096072L404.25025828854245,78.2587157921356L410.64294494922956,76.44644006741868L414.82724894531566,78.78588680371371L415.9895556108952,86.41479849812225L420.5225516066551,86.2483322524887L430.5183889306386,78.02121412243673L435.9812302588622,77.74568449526714L443.53622358512877,74.74093749633124L447.4880662480991,77.6787157310975L457.4839035720825,71.81273604401588L460.85459290226305,75.73508931817156L467.24727956295015,74.41168510515183L470.38550756001473,78.73780514887852L480.3813448839982,72.9114821352029L488.9824142092864,69.49203483362311L498.9782515332699,65.58368547789888L499.7918661991755,73.89965786998317L501.4190955309868,80.86927885788538L506.30078352642056,81.37785193217331L508.9740888572534,85.47915622929293L515.9479288507302,81.58809502296657L525.9437661747138,74.66224191017074L528.1521488393148,80.2668425756031L538.1479861632982,74.04117235766415L548.1438234872818,69.14577894980454L552.6768194830418,71.61501922226682L562.6726568070252,67.53585081717148L564.6485781385104,73.98493837542895L567.3218834693432,79.13743928282048L569.76272746706,84.28803539533345L577.5501821264427,79.46380230560464L578.3637967923482,87.30556479666598L584.2915607868035,84.38284194692926L594.2873981107871,76.68637577505103L595.2172434432507,84.50274987133378L598.5879327734311,86.89069576533052L608.5837700974147,78.47735838305431L618.5796074213981,72.46038911046821L621.7178354184628,76.69023155187347L631.7136727424463,71.0796783870494L640.3147420677344,68.06243250809871L650.3105793917179,64.479405359993L660.3064167157014,61.76425627854479L661.7011847143967,69.33946074308648L662.0498767140707,78.63031413585514L672.0457140380541,72.51767897628025L678.6708620318572,71.53354633088941L683.552550027291,73.4324490477751L693.5483873512745,68.62985314724426L694.710694016854,76.30995128450394L697.1515380145709,81.31118417157637L707.1473753385544,74.80766954168757L708.309682004134,82.26078644078035L709.1232966700394,90.05488192860747L714.0049846654733,88.5417992819643L717.2594433290958,90.62914657869283L722.0249006579718,89.23839105643879L727.6039726527531,86.95336237508252L732.485660648187,86.43411718357697L734.461581979672,91.4976087223609L734.926504645904,99.84562779481183L742.8301899718443,90.57209047507507L749.3391072990894,86.27788071651304L750.8501059643428,92.83860085548878L754.685717960755,93.49557987453977L756.4291779591242,98.51584176010886L761.6595579542319,94.47238578647284L763.4030179526011,99.94466973099856L763.8679406188329,108.72188971596205L766.5412459496657,109.34848915708847L769.7957046132883,108.10462388201296L779.7915419372719,92.94175817544635L781.4187712690831,98.38929174843912L786.0679979314009,96.18346877059798L796.0638352553844,85.25183007160769L798.9696019193331,88.55781012172764L801.526676583608,92.15656602252238L811.5225139075915,82.51370479746402L812.684820573171,89.64424556288697L814.4282805715402,95.46491638822124L824.4241178955236,84.3721974850651L831.9791112217904,79.56335635191022L835.3498005519708,82.94641973802368L837.9068752162457,87.1244582062323L845.9267912087441,80.8908687069025L846.3917138749758,89.40156483393213L856.3875511989594,80.60120364698452L866.3833885229428,74.0212423794099L876.3792258469264,69.13072526974798L886.3750631709098,65.39418594444038L896.3709004948935,62.483843846980506L904.042124487718,62.08725029310932L905.5531231529712,69.40708487492844L915.5489604769548,65.55894410857019L922.9877231366634,64.86048975909972L932.983560460647,62.274722912811L934.8432511255742,69.17512778368342L943.909243117094,66.08705012908086L947.6286244469484,70.31867469376886L957.6244617709318,66.25900718437589L959.2516911027432,73.30794672961383L969.2475284267266,68.5394821941075L979.24336575071,64.9368133539943L980.1732110831738,73.0911107238968L985.6360524113973,73.90124386175239L992.1449697386424,72.75496168590644L1001.0947310636044,69.26769506529496L1010.5094150547982,66.14471293579675L1014.1125657180945,70.5364527236253L1018.8780230469704,72.74166840064066L1023.0623270430566,75.54852741099137L1033.05816436704,70.22490341425373L1039.567081694285,69.80707720261876L1040.6131576933067,77.92306474566846L1050.60899501729,72.3059546655972L1052.933608348449,77.88534743090224L1055.14199101305,83.56618035611962L1058.6289110097885,85.84911012438522L1064.0917523380122,84.05656542832475L1066.8812883354028,87.64629564540343L1069.9032856659094,90.7936313982139L1076.0635109934806,87.08287414443242L1078.2718936580818,91.57512098050108L1080.8289683223566,94.83762918275079L1088.0352696489492,87.80085795541322L1098.0311069729328,79.09297840077505L1100.5881816372078,83.70770898033032L1102.7965643018085,88.5194138482928L1112.792401625792,79.62129920403197L1120.114933618943,76.24609441936354L1125.4615442806085,76.7328379274507L1135.457381604592,71.41693906784536L1139.1767629344463,74.83394188225509L1140.8039922662576,81.38313321889302L1144.407142929554,84.12220395182857L1144.8720655957857,93.08706241206806L1146.731756260713,97.85760035509043L1154.1705189204217,89.99011771325348L1163.9338949112891,81.22471796781332L1168.2344295739333,82.23054602735789L1169.164274906397,89.77850455445139L1179.1601122303805,80.86472421020801L1181.8334175612133,85.09340965569521L1186.482644223531,84.93375391354482L1196.4784815475145,77.43385238396559L1197.640788213094,84.78221694158867L1206.706780204614,77.87049310858214L1216.7026175285976,71.8990869216824L1218.4460775269667,78.47598502561044L1221.5843055240314,82.39846592987635L1231.580142848015,75.26980696484111L1237.5079068424702,74.76574416266618L1237.7403681755861,83.84863741140163L1238.4377521749338,92.30189713586725L1240.064981506745,98.22099598608332L1245.7602841680844,93.23729018247013L1255.756121492068,82.86045161834465L1258.080734823227,87.5865193467547L1261.6838854865232,89.5183806106611L1262.265038819313,97.62327141737637L1265.0545748167037,100.09712482320458L1267.4954188144206,103.18853011134598L1277.4912561384042,89.41038136035178" fill="none"></path></g></g></g></g><g opacity="0.2"><g><g><g><path style="fill: none;" stroke="rgb(238, 51, 119)" stroke-width="2px" d="M116.69558922417959,272.7846662936094ZM118.32281855599085,272.7846662936094L118.6715105556647,237.2626520010264M119.25266388845445,216.48360568978435L119.6013558881283,237.2626520010264M120.53120122059187,237.2626520010264L120.87989322026571,216.48360568978435M121.80973855272929,237.2626520010264ZM122.39089188551903,237.2626520010264L122.62335321863493,272.7846662936094L122.85581455175083,272.7846662936094L123.20450655142466,272.7846662936094L123.7856598842144,190.30510332067047M124.2505825504462,237.2626520010264ZM125.18042788290977,237.2626520010264ZM125.64535054914157,272.7846662936094L125.99404254881541,272.7846662936094L126.22650388193131,272.7846662936094L126.45896521504721,272.7846662936094M127.62127188062668,237.2626520010264ZM128.31865587997436,272.7846662936094ZM128.78357854620617,237.2626520010264ZM129.5971932121118,237.2626520010264ZM130.41080787801744,272.7846662936094ZM131.340653210481,272.7846662936094ZM131.8055758767128,272.7846662936094ZM132.85165187573432,272.7846662936094L133.08411320885023,237.2626520010264L133.31657454196613,237.2626520010264M134.13018920787175,237.2626520010264ZM135.40872654000918,272.7846662936094ZM136.68726387214662,237.2626520010264ZM137.26841720493636,237.2626520010264L137.73333987116814,237.2626520010264M138.43072387051583,237.2626520010264ZM139.12810786986353,272.7846662936094L139.3605692029794,237.2626520010264L139.59303053609528,272.7846662936094M141.5689518675804,190.30510332067047ZM142.2663358669281,272.7846662936094ZM142.7312585331599,237.2626520010264ZM143.42864253250758,272.7846662936094L143.66110386562346,272.7846662936094L143.89356519873937,237.2626520010264L144.24225719841323,272.7846662936094M144.9396411977609,272.7846662936094L145.1721025308768,237.2626520010264M145.63702519710858,272.7846662936094ZM146.68310119613014,190.30510332067047L146.91556252924602,237.2626520010264L147.1480238623619,237.2626520010264L147.3804851954778,272.7846662936094L147.72917719515166,216.48360568978435L148.54279186105728,216.48360568978435M149.24017586040497,272.7846662936094L149.5888678600788,272.7846662936094M150.05379052631062,272.7846662936094ZM150.51871319254238,272.7846662936094L151.09986652533215,216.48360568978435M151.91348119123776,272.7846662936094L152.4946345240275,190.30510332067047L152.9595571902593,216.48360568978435L153.1920185233752,272.7846662936094M154.23809452239672,180.96159139720135L154.47055585551263,272.7846662936094L154.7030171886285,237.2626520010264L154.93547852174441,272.7846662936094M155.74909318765003,190.30510332067047L156.0977851873239,216.48360568978435L156.33024652043977,272.7846662936094L156.56270785355568,237.2626520010264L156.7951691866716,237.2626520010264L157.02763051978746,237.2626520010264L157.6087838525772,216.48360568978435L157.95747585225106,272.7846662936094L158.18993718536694,237.2626520010264L158.42239851848282,272.7846662936094L158.65485985159876,237.2626520010264L159.23601318438847,190.30510332067047L159.8171665171782,190.30510332067047L160.04962785029412,272.7846662936094L160.28208918341002,272.7846662936094L160.63078118308385,237.2626520010264L160.86324251619973,237.2626520010264L161.2119345158736,216.48360568978435L161.67685718210538,216.48360568978435L161.9093185152213,237.2626520010264L162.1417798483372,237.2626520010264L162.7229331811269,201.74063770844336L162.9553945142428,272.7846662936094L163.4203171804746,237.2626520010264L163.6527785135905,237.2626520010264L163.88523984670638,272.7846662936094M164.81508517916998,216.48360568978435ZM165.39623851195972,216.48360568978435L165.74493051163356,272.7846662936094L166.3260838444233,272.7846662936094L167.13969851032894,180.96159139720135L167.37215984344482,237.2626520010264L167.72085184311865,237.2626520010264M168.5344665090243,272.7846662936094ZM169.231850508372,272.7846662936094ZM170.16169584083556,180.96159139720135L170.51038784050942,272.7846662936094L170.9753105067412,201.74063770844336L171.2077718398571,237.2626520010264L171.78892517264683,237.2626520010264L172.1376171723207,272.7846662936094L172.71877050511043,201.74063770844336M173.1836931713422,237.2626520010264L173.53238517101605,237.2626520010264L173.76484650413195,272.7846662936094M174.22976917036374,237.2626520010264L174.81092250315348,201.74063770844336L175.04338383626938,272.7846662936094M175.62453716905912,237.2626520010264L176.32192116840682,201.74063770844336L176.7868438346386,237.2626520010264L177.36799716742834,201.74063770844336L177.94915050021805,201.74063770844336L178.18161183333396,272.7846662936094L178.53030383300782,237.2626520010264L179.11145716579756,272.7846662936094L179.57637983202935,201.74063770844336L179.92507183170318,272.7846662936094L180.73868649760882,173.06176462792592M181.4360704969565,216.48360568978435L182.01722382974626,190.30510332067047L182.59837716253597,272.7846662936094L183.06329982876778,201.74063770844336L183.41199182844161,272.7846662936094L183.76068382811548,216.48360568978435L183.99314516123135,237.2626520010264L184.22560649434726,272.7846662936094L184.92299049369493,190.30510332067047L185.3879131599267,201.74063770844336L186.2015278258324,180.96159139720135M187.13137315829593,180.96159139720135L187.36383449141184,272.7846662936094L187.59629582452774,237.2626520010264L187.9449878242016,216.48360568978435M188.40991049043336,237.2626520010264L188.6423718235493,237.2626520010264L188.87483315666515,272.7846662936094L189.45598648945492,201.74063770844336M190.50206248847644,180.96159139720135L190.73452382159235,237.2626520010264L191.08321582126618,237.2626520010264L191.6643691540559,201.74063770844336M192.24552248684566,216.48360568978435L192.47798381996157,237.2626520010264L192.71044515307744,237.2626520010264L193.05913715275128,216.48360568978435M193.64029048554104,216.48360568978435L193.98898248521488,216.48360568978435L194.91882781767848,166.21862341586032L195.4999811504682,201.74063770844336L195.7324424835841,237.2626520010264L195.9649038167,237.2626520010264L196.19736514981588,237.2626520010264L196.5460571494897,216.48360568978435L197.0109798157215,237.2626520010264L197.35967181539533,216.48360568978435M198.05705581474302,237.2626520010264L198.40574781441686,216.48360568978435L198.75443981409072,216.48360568978435L199.10313181376455,216.48360568978435L199.33559314688046,237.2626520010264M199.91674647967022,216.48360568978435L200.26543847934406,216.48360568978435L200.73036114557584,237.2626520010264L200.96282247869175,272.7846662936094L201.77643714459737,173.06176462792592L202.24135981082915,201.74063770844336L202.70628247706097,201.74063770844336M203.40366647640866,272.7846662936094L203.7523584760825,237.2626520010264L204.3335118088722,190.30510332067047L205.14712647477788,173.06176462792592M205.61204914100966,237.2626520010264L206.07697180724142,201.74063770844336L208.05289313872655,127.58975282631283L208.4015851384004,216.48360568978435L208.75027713807424,237.2626520010264L209.91258380365372,154.78308902808743L210.14504513676962,237.2626520010264L210.37750646988553,237.2626520010264L211.19112113579115,173.06176462792592L212.1209664682547,166.21862341586032L212.8183504676024,180.96159139720135L213.51573446695008,180.96159139720135L214.32934913285575,180.96159139720135L215.14296379876137,190.30510332067047L218.16496112926802,109.91756281203538L220.14088246075312,127.58975282631283L221.76811179256438,149.8986868921617M225.0225704561869,105.81557944437662L226.99849178767204,127.58975282631283L227.57964512046178,201.74063770844336L228.39325978636742,190.30510332067047L228.8581824525992,201.74063770844336L232.11264111622174,102.02505709702211L232.92625578212738,190.30510332067047L234.4372544473807,141.33759373695963L235.71579177951816,173.06176462792592L238.97025044314069,102.02505709702211L239.55140377593042,216.48360568978435L240.13255710872014,216.48360568978435L242.92209310611088,109.91756281203538L244.20063043824834,149.8986868921617L246.75770510252318,119.26107473550442L248.15247310121853,145.4395771046183L249.77970243302983,137.5397503353429L250.36085576581954,190.30510332067047L250.82577843205135,201.74063770844336L251.87185443107288,160.18254508595936M252.80169976353645,190.30510332067047L255.47500509436927,112.09863383716737L256.6373117599487,166.21862341586032L257.68338775897024,160.18254508595936L258.9619250911077,149.8986868921617L259.6593090904554,201.74063770844336L260.472923756361,190.30510332067047L261.75146108849844,160.18254508595936L265.2383810852369,98.50253001235097L266.2844570842584,160.15977515876315L267.6792250829538,145.4395771046183L271.2823757462502,96.82809250112166L273.02583574461937,141.33759373695963L275.00175707610447,134.00404271684548L278.4886770728429,98.50253001235097L282.3242890692552,96.85456136522481L284.7651330669721,121.88972444720972L293.7148943919341,53.46583013187711L294.2960477247238,187.1644952726056L296.7368917224407,121.88972444720972L302.3159637172222,74.79856671944663L304.4081157152653,124.53541037212224L306.50026771330835,130.69660912327734L307.197651712656,180.96159139720135L312.66049304087954,75.83777028645972L313.4741077067852,172.7697559453971L316.3798743707339,107.82554034773153L321.9589463655154,74.79856671944663L323.35371436421076,145.25201489988612L327.4217876937389,93.67222279718175L328.35163302620253,166.16739919624308L335.79039568591116,62.80309743092903L344.6239263443152,53.85049822681498L354.6197636682987,49.63555179139581L360.19883566308016,75.36120831571407L370.19467298706377,51.17039257697246L373.6815929838022,99.39897000141394L376.4711289811929,109.90902290370855L386.4669663051764,49.83086424860687L390.9999623009364,85.86312330038493L391.4648849671682,237.2626520010264L401.4607222911517,49.83086424860687L404.1340276219845,113.27057098161237L414.129864945968,51.17039257697246L424.1257022699515,50.17578522647824L434.12153959393504,50.17578522647824L439.70061158871647,75.36120831571407L443.07130091889695,103.89667005608942L444.5822995841503,149.8986868921617L454.57813690813384,51.17039257697246L464.57397423211734,50.17578522647824L474.56981155610083,50.17578522647824L484.5656488800843,50.17578522647824L494.5614862040678,50.17578522647824L504.5573235280514,50.17578522647824L514.5531608520349,50.17578522647824L524.5489981760184,50.17578522647824L534.5448355000019,50.17578522647824L540.5888301610152,71.40135887319695L550.5846674849987,49.791210965737775L560.5805048089821,50.17578522647824L570.2276501332918,51.23829593081837L580.2234874572754,49.54869647393758L585.1051754527092,82.08512294240649L595.1010127766928,51.17039257697246L605.0968501006762,50.17578522647824L615.0926874246597,50.17578522647824L625.0885247486432,50.17578522647824L635.0843620726267,50.17578522647824L645.0801993966103,50.17578522647824L655.0760367205938,50.17578522647824L665.0718740445773,50.17578522647824L675.0677113685608,50.17578522647824L685.0635486925443,50.17578522647824L695.0593860165278,50.17578522647824L705.0552233405112,50.17578522647824L707.4960673382282,118.04566475170952L717.4919046622117,51.17039257697246L727.4877419861951,50.17578522647824L737.4835793101788,50.17578522647824L747.4794166341624,50.17578522647824L757.4752539581458,50.17578522647824L758.7537912902833,152.38042779898342L768.7496286142667,51.17039257697246L778.7454659382503,50.17578522647824L788.7413032622337,50.17578522647824L798.7371405862173,50.17578522647824L808.7329779102007,50.17578522647824L818.7288152341843,50.17578522647824L828.7246525581677,50.17578522647824L838.7204898821514,50.17578522647824L840.9288725467522,123.31183754538603L850.9247098707358,49.83086424860687L860.9205471947192,50.17578522647824L870.9163845187028,50.17578522647824L876.2629951803684,77.48932802434331L886.2588325043519,49.80706859721414L896.2546698283354,50.17578522647824L906.2505071523191,50.17578522647824L916.2463444763025,50.17578522647824L926.2421818002861,50.17578522647824L936.2380191242695,50.17578522647824L937.400325789849,157.51974427620618L947.3961631138325,51.17039257697246L957.392000437816,50.17578522647824L967.3878377617995,50.17578522647824L977.383675085783,50.17578522647824L987.3795124097664,50.17578522647824L997.37534973375,50.17578522647824L1007.3711870577334,50.17578522647824L1017.3670243817171,50.17578522647824L1027.3628617057007,50.17578522647824L1037.3586990296842,50.17578522647824L1047.3545363536675,50.17578522647824L1057.350373677651,50.17578522647824L1067.3462110016346,50.17578522647824L1073.5064363292058,70.46731090682971L1083.5022736531894,51.17039257697246L1093.498110977173,50.17578522647824L1103.4939483011565,50.17578522647824L1113.4897856251398,50.17578522647824L1123.4856229491234,50.17578522647824L1133.481460273107,50.17578522647824L1143.4772975970905,50.17578522647824L1153.4731349210738,50.17578522647824L1163.4689722450573,50.17578522647824L1173.464809569041,50.17578522647824L1178.6951895641484,78.59442526535253L1188.691026888132,49.80971033237955L1198.6868642121158,50.17578522647824L1208.682701536099,50.17578522647824L1218.6785388600827,50.17578522647824L1228.6743761840662,50.17578522647824L1238.6702135080498,50.17578522647824L1248.666050832033,50.17578522647824L1258.6618881560166,50.17578522647824L1267.4954188144206,54.327484850694816L1277.4912561384042,49.63555179139581L1287.4870934623877,50.17578522647824L1297.4829307863713,50.17578522647824" fill="none"></path></g><g><path style="fill: none;" stroke="rgb(0, 119, 187)" stroke-width="2px" d="M117.16051189041139,2084.407395215343L117.50920389008523,220.01931418102046L118.09035722287496,237.2626520010264L118.6715105556647,192.39712374858428L119.02020255533854,272.7846662936094L119.6013558881283,272.7846662936094L120.41497055403391,190.30510332067047L120.87989322026571,237.2626520010264L121.11235455338159,2119.9294095079263L121.34481588649749,242.6621094164917M122.04219988584518,204.36928806321922L122.27466121896109,2119.9294095079263L122.50712255207698,242.6621094164917L122.85581455175083,220.01931418102046M123.43696788454055,272.7846662936094L123.66942921765646,2119.9294095079263L123.90189055077235,284.22019991773607L124.13435188388824,242.6621094164917L124.36681321700415,284.22019991773607L124.715505216678,272.7846662936094L124.94796654979388,242.6621094164917L125.29665854946772,2119.9294095079263L125.76158121569952,272.7846662936094M126.34273454848926,242.6621094164917ZM127.04011854783694,2119.9294095079263L127.62127188062668,237.2626520010264L127.85373321374256,2119.9294095079263L128.2024252134164,242.6621094164917L128.55111721309027,2119.9294095079263M129.01603987932205,284.22019991773607L129.48096254555384,272.7846662936094L130.17834654490153,192.39712374858428M130.87573054424922,284.22019991773607L131.57311454359692,201.74063770844336L131.8055758767128,284.22019991773607L132.0380372098287,242.6621094164917M133.66526654163997,242.6621094164917L134.01395854131383,284.22019991773607M135.29249587345123,284.22019991773607L135.75741853968302,220.01931418102046L136.10611053935685,220.01931418102046L136.57103320558866,2084.407395215343L136.80349453870454,2119.9294095079263L137.1521865383784,272.7846662936094L137.6171092046102,242.6621094164917L137.84957053772607,242.6621094164917L138.08203187084197,242.6621094164917L138.31449320395788,2119.9294095079263L138.54695453707376,242.6621094164917M139.12810786986353,220.01931418102046ZM139.94172253576914,220.01931418102046L140.29041453544298,242.6621094164917L140.63910653511684,272.7846662936094M141.68518253413836,220.01931418102046L142.15010520037015,242.6621094164917L142.38256653348606,284.22019991773607L142.84748919971784,237.2626520010264L143.31241186594963,2084.407395215343L144.12602653185527,2119.9294095079263L144.4747185315291,242.6621094164917M145.1721025308768,204.36928806321922L145.52079453055063,2119.9294095079263L145.8694865302245,284.22019991773607L146.21817852989832,284.22019991773607M147.26425452891985,182.69895723924176ZM147.8454078617096,2119.9294095079263L148.65902252761524,174.54730006921702L148.8914838607311,284.22019991773607M149.35640652696293,242.6621094164917L149.5888678600788,2119.9294095079263L149.93755985975264,220.01931418102046L150.2862518594265,220.01931418102046L150.86740519221624,216.48360568978435L151.21609719189007,272.7846662936094L151.79725052467984,237.2626520010264M153.07578785681724,216.48360568978435L153.8894025227229,182.69895723924176M154.7030171886285,272.7846662936094L155.16793985486032,204.36928806321922M155.98155452076594,272.7846662936094L156.6789385201136,182.69895723924176M157.26009185290337,220.01931418102046L157.6087838525772,2119.9294095079263L157.8412451856931,2119.9294095079263L158.18993718536694,272.7846662936094L159.0035518512726,190.30510332067047L159.35224385094642,272.7846662936094L160.04962785029412,201.74063770844336L160.28208918341002,242.6621094164917L160.86324251619973,192.39712374858428L161.4443958489895,192.39712374858428M162.37424118145307,201.74063770844336L162.60670251456895,242.6621094164917L162.9553945142428,2119.9294095079263M163.6527785135905,237.2626520010264ZM164.69885451261203,242.6621094164917L164.9313158457279,284.22019991773607L165.97739184474943,161.33422016917643L166.20985317786534,242.6621094164917L166.44231451098125,2119.9294095079263L166.79100651065508,272.7846662936094L167.023467843771,2119.9294095079263L168.0695438427925,161.33422016917643L168.5344665090243,237.2626520010264L168.7669278421402,242.6621094164917L168.9993891752561,2119.9294095079263L169.58054250804582,192.39712374858428M170.51038784050942,237.2626520010264L171.32400250641504,174.54730006921702L171.90515583920478,237.2626520010264L172.1376171723207,2119.9294095079263M172.9512318382263,272.7846662936094ZM173.76484650413195,204.36928806321922L174.46223050347962,182.69895723924176L174.69469183659552,2119.9294095079263L175.2758451693853,204.36928806321922L175.856998502175,192.39712374858428L176.0894598352909,284.22019991773607L176.90307450119653,190.30510332067047L177.36799716742834,204.36928806321922L177.94915050021805,192.39712374858428L178.53030383300782,192.39712374858428L178.76276516612373,2119.9294095079263L179.34391849891344,192.39712374858428L179.57637983202935,242.6621094164917L180.1575331648191,272.7846662936094L181.08737849728266,180.96159139720135L181.31983983039856,2119.9294095079263L183.1795304953257,131.3412388138415L183.6444531615575,204.36928806321922L184.69052916057902,173.06176462792592L185.15545182681083,237.2626520010264L185.5041438264847,272.7846662936094M186.66645049206414,190.30510332067047L187.015142491738,2119.9294095079263L187.36383449141184,220.01931418102046L187.59629582452774,2119.9294095079263L188.06121849075953,237.2626520010264L188.29367982387544,2119.9294095079263L188.75860249010722,237.2626520010264L189.33975582289696,220.01931418102046L189.57221715601284,242.6621094164917L189.92090915568667,284.22019991773607L190.15337048880258,242.6621094164917L190.50206248847644,272.7846662936094L193.05913715275128,114.84469074050389L193.64029048554104,216.48360568978435L194.22144381833078,192.39712374858428L194.45390515144666,242.6621094164917L195.38375048391026,167.51609485291044L195.7324424835841,284.22019991773607L196.19736514981588,204.36928806321922L196.89474914916354,201.74063770844336L197.7083638150692,174.54730006921702L198.173286481301,237.2626520010264L198.8706704806487,192.39712374858428L199.21936248032253,272.7846662936094L199.56805447999636,272.7846662936094L200.03297714622815,204.36928806321922L201.31151447836558,160.18254508595936L202.24135981082915,180.96159139720135L202.8225131436189,192.39712374858428L203.86858914264045,180.96159139720135L204.21728114231428,272.7846662936094L204.5659731419881,220.01931418102046L204.91466514166197,220.01931418102046L205.2633571413358,272.7846662936094L205.7282798075676,237.2626520010264L207.5879704724948,137.5397503353429L209.91258380365372,119.77613063213195L210.26127580332755,220.01931418102046L211.30735180234907,161.33422016917643L212.23719713481267,167.51609485291044L212.46965846792855,242.6621094164917L215.84034779810906,103.89667005608942L216.77019313057264,167.48982275841757L217.93249979615211,166.21862341586032L218.97857579517364,161.33422016917643L219.5597291279634,220.01931418102046L220.25711312731107,201.74063770844336L227.57964512046178,62.00550827245206L236.76186777853968,53.95069950625481L241.41109444085757,86.53521280772765L251.40693176484106,49.94999841245868L261.4027690888246,50.17578522647824L271.3986064128081,50.17578522647824L276.62898640791576,78.59442526535253L279.4185224053065,110.27755472645316L281.97559706958134,114.84469074050389L282.44051973581315,237.2626520010264L286.2761317322254,93.95918126730754L293.0175103925864,67.48625410947426L295.5745850568612,119.26107473550442L305.5704223808447,49.963250406186944L310.1034183766047,85.86312330038493L311.9631090415319,137.5397503353429L318.8207183684508,65.03068745733714L324.51602102979024,75.93889672867749L334.5118583537738,49.931448344238675L335.0930116865635,195.93283318528708L337.3013943511645,127.58975282631283L339.62600768232346,119.77613063213195L349.62184500630696,51.17039257697246L357.87422233192126,57.042510042162235L367.87005965590475,49.81499925340819L377.86589697988825,50.17578522647824L384.25858364057547,68.66788220591712L394.25442096455896,51.17039257697246L398.554955627203,88.56097748524388L402.97172095640497,86.741288006035L404.25025828854245,160.18254508595936L410.64294494922956,68.36326797146614L414.82724894531566,92.1582571463577L415.9895556108952,166.21862341586032L420.5225516066551,85.4375664774181L430.5183889306386,49.95264752593533L435.9812302588622,76.41200249728587L443.53622358512877,62.08941191055146L447.4880662480991,95.23869566151137L457.4839035720825,49.95794616374292L460.85459290226305,101.16105102106252L467.24727956295015,68.35947018955125L470.38550756001473,107.82554034773153L480.3813448839982,51.17039257697246L488.9824142092864,55.365652378873506L498.9782515332699,49.78592953832043L499.7918661991755,177.01753538076045L501.4190955309868,145.4395771046183L506.30078352642056,83.95475199479012L508.9740888572534,112.49229756471908L515.9479288507302,65.84825298092022L525.9437661747138,49.8890712212679L528.1521488393148,123.31183754538603L538.1479861632982,51.17039257697246L548.1438234872818,50.17578522647824L552.6768194830418,85.86312330038493L562.6726568070252,51.17039257697246L564.6485781385104,129.18179778385107L567.3218834693432,116.76070402410085L569.76272746706,121.88972444720972L577.5501821264427,60.71407099200138L578.3637967923482,173.23777324815842L584.2915607868035,72.02957176205052L594.2873981107871,49.92614739219931L595.2172434432507,169.66289924006563L598.5879327734311,100.58828859027915L608.5837700974147,49.96060074457722L618.5796074213981,50.17578522647824L621.7178354184628,104.87810112947557L631.7136727424463,49.963250406186944L640.3147420677344,55.365652378873506L650.3105793917179,49.78592953832043L660.3064167157014,50.17578522647824L661.7011847143967,147.709853735989L662.0498767140707,272.7846662936094L672.0457140380541,49.963250406186944L678.6708620318572,66.95164820290546L683.552550027291,83.95475199479012L693.5483873512745,49.94734438074664L694.710694016854,157.51974427620618L697.1515380145709,117.25111571189427L707.1473753385544,51.17039257697246L708.309682004134,157.51974427620618L709.1232966700394,174.54730006921702L714.0049846654733,81.68969362835338L717.2594433290958,102.34824789366911L722.0249006579718,82.90037823407272L727.6039726527531,76.99723237601592L732.485660648187,83.95475199479012L734.461581979672,128.12308184832725L734.926504645904,204.36928806321922L742.8301899718443,60.05452325631546L749.3391072990894,69.20921231246848L750.8501059643428,149.8986868921617L754.685717960755,96.85456136522481L756.4291779591242,134.66424557868484L761.6595579542319,78.22493998571213L763.4030179526011,141.33759373695963L763.8679406188329,237.2626520010264L766.5412459496657,112.54621423859544L769.7957046132883,102.39247786734444L779.7915419372719,51.17039257697246L781.4187712690831,139.47947893347217L786.0679979314009,86.53521280772765L796.0638352553844,51.17039257697246L798.9696019193331,108.90272993767587L801.526676583608,114.84469074050389L811.5225139075915,51.17039257697246L812.684820573171,157.51974427620618L814.4282805715402,141.33759373695963L824.4241178955236,49.963250406186944L831.9791112217904,60.861432891003574L835.3498005519708,103.89667005608942L837.9068752162457,114.83528460231406L845.9267912087441,57.99802431631508L846.3917138749758,201.74063770844336L856.3875511989594,51.17039257697246L866.3833885229428,50.17578522647824L876.3792258469264,50.17578522647824L886.3750631709098,50.17578522647824L896.3709004948935,50.17578522647824L904.042124487718,60.18057593350335L905.5531231529712,141.47970756547548L915.5489604769548,49.963250406186944L922.9877231366634,61.55810194984889L932.983560460647,51.17039257697246L934.8432511255742,132.3898183754229L943.909243117094,53.13476973380591L947.6286244469484,98.52304306623586L957.6244617709318,49.95794616374292L959.2516911027432,139.47947893347217L969.2475284267266,49.963250406186944L979.24336575071,50.17578522647824L980.1732110831738,169.66289924006563L985.6360524113973,78.08247677031892L992.1449697386424,67.463868793215L1001.0947310636044,54.90521687209923L1010.5094150547982,53.067123315251536L1014.1125657180945,100.24767952257275L1018.8780230469704,85.22610594954165L1023.0623270430566,92.1582571463577L1033.05816436704,49.95529677635869L1039.567081694285,67.80070466014166L1040.6131576933067,173.06176462792592L1050.60899501729,51.17039257697246L1052.933608348449,120.6111370736624L1055.14199101305,127.58975282631283L1058.6289110097885,98.84546242504143L1064.0917523380122,76.05345566629478L1066.8812883354028,110.26035596188984L1069.9032856659094,109.91756281203538L1076.0635109934806,71.9521492571169L1078.2718936580818,122.25786645527984L1080.8289683223566,114.84469074050389L1088.0352696489492,62.73502009937965L1098.0311069729328,49.87848367569393L1100.5881816372078,115.60252172476521L1102.7965643018085,122.43203247496754L1112.792401625792,49.963250406186944L1120.114933618943,62.2744887416539L1125.4615442806085,79.19588821897344L1135.457381604592,51.17039257697246L1139.1767629344463,96.05329249081274L1140.8039922662576,138.2474376009627L1144.407142929554,100.24767952257275L1144.8720655957857,237.2626520010264L1146.731756260713,131.3412388138415L1154.1705189204217,62.80309743092903L1163.9338949112891,51.87552922072541L1168.2344295739333,87.48568159668093L1169.164274906397,167.4373158121635L1179.1601122303805,51.17039257697246L1181.8334175612133,113.27057098161237L1186.482644223531,84.15585665808663L1196.4784815475145,51.17039257697246L1197.640788213094,157.51974427620618L1206.706780204614,53.13476973380591L1216.7026175285976,49.74367252640309L1218.4460775269667,135.81214677387612L1221.5843055240314,107.82554034773153L1231.580142848015,49.963250406186944L1237.5079068424702,72.35684921020561L1237.7403681755861,241.0920434672862L1238.4377521749338,201.74063770844336L1240.064981506745,145.4395771046183L1245.7602841680844,73.99567500623465L1255.756121492068,49.931448344238675L1258.080734823227,120.6111370736624L1261.6838854865232,100.24767952257275L1262.265038819313,192.3544384324985L1265.0545748167037,114.37667259957868L1267.4954188144206,121.88972444720972L1277.4912561384042,49.963250406186944" fill="none"></path></g></g></g></g></g></g><g transform="translate(39, 374)" clip-path="url(#clip_1)"><clipPath id="clip_1"><rect width="1394" height="25"></rect></clipPath><g><g><line x1="0" y1="0" x2="0" y2="5" style="visibility: inherit;" fill="rgb(0, 0, 0)" stroke="rgb(204, 204, 204)" stroke-width="1px"></line><line x1="116.23066655794779" y1="0" x2="116.23066655794779" y2="5" style="visibility: inherit;" fill="rgb(0, 0, 0)" stroke="rgb(204, 204, 204)" stroke-width="1px"></line><line x1="232.46133311589557" y1="0" x2="232.46133311589557" y2="5" style="visibility: inherit;" fill="rgb(0, 0, 0)" stroke="rgb(204, 204, 204)" stroke-width="1px"></line><line x1="348.6919996738434" y1="0" x2="348.6919996738434" y2="5" style="visibility: inherit;" fill="rgb(0, 0, 0)" stroke="rgb(204, 204, 204)" stroke-width="1px"></line><line x1="464.92266623179114" y1="0" x2="464.92266623179114" y2="5" style="visibility: inherit;" fill="rgb(0, 0, 0)" stroke="rgb(204, 204, 204)" stroke-width="1px"></line><line x1="581.153332789739" y1="0" x2="581.153332789739" y2="5" style="visibility: inherit;" fill="rgb(0, 0, 0)" stroke="rgb(204, 204, 204)" stroke-width="1px"></line><line x1="697.3839993476868" y1="0" x2="697.3839993476868" y2="5" style="visibility: inherit;" fill="rgb(0, 0, 0)" stroke="rgb(204, 204, 204)" stroke-width="1px"></line><line x1="813.6146659056346" y1="0" x2="813.6146659056346" y2="5" style="visibility: inherit;" fill="rgb(0, 0, 0)" stroke="rgb(204, 204, 204)" stroke-width="1px"></line><line x1="929.8453324635823" y1="0" x2="929.8453324635823" y2="5" style="visibility: inherit;" fill="rgb(0, 0, 0)" stroke="rgb(204, 204, 204)" stroke-width="1px"></line><line x1="1046.0759990215302" y1="0" x2="1046.0759990215302" y2="5" style="visibility: inherit;" fill="rgb(0, 0, 0)" stroke="rgb(204, 204, 204)" stroke-width="1px"></line><line x1="1162.306665579478" y1="0" x2="1162.306665579478" y2="5" style="visibility: inherit;" fill="rgb(0, 0, 0)" stroke="rgb(204, 204, 204)" stroke-width="1px"></line><line x1="1278.5373321374257" y1="0" x2="1278.5373321374257" y2="5" style="visibility: inherit;" fill="rgb(0, 0, 0)" stroke="rgb(204, 204, 204)" stroke-width="1px"></line><line x1="1394.7679986953735" y1="0" x2="1394.7679986953735" y2="5" style="visibility: inherit;" fill="rgb(0, 0, 0)" stroke="rgb(204, 204, 204)" stroke-width="1px"></line></g><g transform="translate(0, 8)"><text style="text-anchor: middle; visibility: hidden; font-family: &quot;Helvetica Neue&quot;, sans-serif; font-size: 12px; font-weight: 200;" x="0" y="0" dx="0em" dy="0.95em" fill="rgb(50, 49, 63)" stroke="none" stroke-width="1px">-1k</text><text style="text-anchor: middle; visibility: inherit; font-family: &quot;Helvetica Neue&quot;, sans-serif; font-size: 12px; font-weight: 200;" x="116.23066655794779" y="0" dx="0em" dy="0.95em" fill="rgb(50, 49, 63)" stroke="none" stroke-width="1px">0</text><text style="text-anchor: middle; visibility: inherit; font-family: &quot;Helvetica Neue&quot;, sans-serif; font-size: 12px; font-weight: 200;" x="232.46133311589557" y="0" dx="0em" dy="0.95em" fill="rgb(50, 49, 63)" stroke="none" stroke-width="1px">1k</text><text style="text-anchor: middle; visibility: inherit; font-family: &quot;Helvetica Neue&quot;, sans-serif; font-size: 12px; font-weight: 200;" x="348.6919996738434" y="0" dx="0em" dy="0.95em" fill="rgb(50, 49, 63)" stroke="none" stroke-width="1px">2k</text><text style="text-anchor: middle; visibility: inherit; font-family: &quot;Helvetica Neue&quot;, sans-serif; font-size: 12px; font-weight: 200;" x="464.92266623179114" y="0" dx="0em" dy="0.95em" fill="rgb(50, 49, 63)" stroke="none" stroke-width="1px">3k</text><text style="text-anchor: middle; visibility: inherit; font-family: &quot;Helvetica Neue&quot;, sans-serif; font-size: 12px; font-weight: 200;" x="581.153332789739" y="0" dx="0em" dy="0.95em" fill="rgb(50, 49, 63)" stroke="none" stroke-width="1px">4k</text><text style="text-anchor: middle; visibility: inherit; font-family: &quot;Helvetica Neue&quot;, sans-serif; font-size: 12px; font-weight: 200;" x="697.3839993476868" y="0" dx="0em" dy="0.95em" fill="rgb(50, 49, 63)" stroke="none" stroke-width="1px">5k</text><text style="text-anchor: middle; visibility: inherit; font-family: &quot;Helvetica Neue&quot;, sans-serif; font-size: 12px; font-weight: 200;" x="813.6146659056346" y="0" dx="0em" dy="0.95em" fill="rgb(50, 49, 63)" stroke="none" stroke-width="1px">6k</text><text style="text-anchor: middle; visibility: inherit; font-family: &quot;Helvetica Neue&quot;, sans-serif; font-size: 12px; font-weight: 200;" x="929.8453324635823" y="0" dx="0em" dy="0.95em" fill="rgb(50, 49, 63)" stroke="none" stroke-width="1px">7k</text><text style="text-anchor: middle; visibility: inherit; font-family: &quot;Helvetica Neue&quot;, sans-serif; font-size: 12px; font-weight: 200;" x="1046.0759990215302" y="0" dx="0em" dy="0.95em" fill="rgb(50, 49, 63)" stroke="none" stroke-width="1px">8k</text><text style="text-anchor: middle; visibility: inherit; font-family: &quot;Helvetica Neue&quot;, sans-serif; font-size: 12px; font-weight: 200;" x="1162.306665579478" y="0" dx="0em" dy="0.95em" fill="rgb(50, 49, 63)" stroke="none" stroke-width="1px">9k</text><text style="text-anchor: middle; visibility: inherit; font-family: &quot;Helvetica Neue&quot;, sans-serif; font-size: 12px; font-weight: 200;" x="1278.5373321374257" y="0" dx="0em" dy="0.95em" fill="rgb(50, 49, 63)" stroke="none" stroke-width="1px">10k</text><text style="text-anchor: middle; visibility: hidden; font-family: &quot;Helvetica Neue&quot;, sans-serif; font-size: 12px; font-weight: 200;" x="1394.7679986953735" y="0" dx="0em" dy="0.95em" fill="rgb(50, 49, 63)" stroke="none" stroke-width="1px">11k</text></g><line x1="0" y1="0" x2="1394.7679986953735" y2="0" fill="rgb(0, 0, 0)" stroke="rgb(204, 204, 204)" stroke-width="1px"></line></g></g></g></g></svg>