<?xml version="1.0" encoding="UTF-8" standalone="no"?>
<!-- Created with Inkscape (http://www.inkscape.org/) -->

<svg
   xmlns:dc="http://purl.org/dc/elements/1.1/"
   xmlns:cc="http://creativecommons.org/ns#"
   xmlns:rdf="http://www.w3.org/1999/02/22-rdf-syntax-ns#"
   xmlns:svg="http://www.w3.org/2000/svg"
   xmlns="http://www.w3.org/2000/svg"
   xmlns:sodipodi="http://sodipodi.sourceforge.net/DTD/sodipodi-0.dtd"
   xmlns:inkscape="http://www.inkscape.org/namespaces/inkscape"
   version="1.0"
   width="950"
   height="327.17224"
   id="svg2403"
   xml:space="preserve"
   inkscape:version="0.48.5 r10040"
   sodipodi:docname="hska.svg"><metadata
     id="metadata3169"><rdf:RDF><cc:Work
         rdf:about=""><dc:format>image/svg+xml</dc:format><dc:type
           rdf:resource="http://purl.org/dc/dcmitype/StillImage" /></cc:Work></rdf:RDF></metadata><sodipodi:namedview
     pagecolor="#ffffff"
     bordercolor="#666666"
     borderopacity="1"
     objecttolerance="10"
     gridtolerance="10"
     guidetolerance="10"
     inkscape:pageopacity="0"
     inkscape:pageshadow="2"
     inkscape:window-width="1920"
     inkscape:window-height="1147"
     id="namedview3167"
     showgrid="false"
     fit-margin-top="0"
     fit-margin-left="0"
     fit-margin-right="0"
     fit-margin-bottom="0"
     inkscape:zoom="0.92268041"
     inkscape:cx="389.23998"
     inkscape:cy="394.45616"
     inkscape:window-x="-8"
     inkscape:window-y="-8"
     inkscape:window-maximized="1"
     inkscape:current-layer="g2452" /><defs
     id="defs2406"><clipPath
       id="clipPath2424"><path
         d="M 0,0 426,0 426,148 0,148 0,0 z"
         id="path2426"
         inkscape:connector-curvature="0" /></clipPath><clipPath
       id="clipPath2446"><path
         d="m 0,0 425.197,0 0,147.015 L 0,147.015 0,0 z"
         id="path2448"
         inkscape:connector-curvature="0" /></clipPath></defs><g
     id="g2414"
     transform="matrix(1.25,0,0,-1.25,-10,175.17223)" /><g
     id="g2416"
     transform="matrix(1.25,0,0,-1.25,-10,175.17223)" /><g
     id="g2422"
     clip-path="url(#clipPath2424)"
     transform="matrix(2.2342585,0,0,-2.2342585,0,328.46951)"><g
       id="g2428" /><g
       id="g2452"><g
         id="g4192"><path
           inkscape:connector-curvature="0"
           style="fill:#ed1c24;fill-opacity:1;fill-rule:evenodd;stroke:none"
           id="path2432"
           d="m 28.42,40.058 -0.023,-0.063 0.826,-0.269 0.116,0.331 -0.919,10e-4" /><path
           inkscape:connector-curvature="0"
           style="fill:#db0031;fill-opacity:1;fill-rule:evenodd;stroke:none"
           id="path2434"
           d="m 53.519,40.057 c 0.074,0 41.82901,0 41.82901,0 0,0.07 0.002,68.178 0.002,68.178 -6.478,-0.379 -21.83299,2.066 -31.757,13.493 C 63.382,119.982 53.514,40.06 53.519,40.057" /><path
           inkscape:connector-curvature="0"
           style="fill:#db0031;fill-opacity:1;fill-rule:evenodd;stroke:none"
           id="path2436"
           d="m 29.339,40.057 c 0.112,0 23.309,-0.011 23.309,0 0.083,0.928 10.291,83.833 10.291,83.833 0.691,-0.806 8.52401,-11.633 24.957,-14.321 -10.55899,3.762 -22.077,14.206 -26.378,26.109 C 61.096,134.333 29.339,40.057 29.339,40.057" /><path
           inkscape:connector-curvature="0"
           style="fill:#db0031;fill-opacity:1;fill-rule:evenodd;stroke:none"
           id="path2438"
           d="M 28.42,40.058 C 27.945,40.057 0,40.062 0,40.062 c 0.174,0.283 65.165,106.953 65.165,106.953 -0.067,-15.357 9.428,-24.708 10.176,-25.774 0.877,-0.75 5.759,-6.988 17.52401,-12.014 -2.934,0.573 -10.49801,1.626 -20.79601,12.028 -3.251,3.146 -8.537,9.574 -10.547,17.22 C 60.805,136.429 28.42,40.058 28.42,40.058" /><path
           inkscape:connector-curvature="0"
           style="fill:#ed1c24;fill-opacity:1;fill-rule:evenodd;stroke:none"
           id="path2440"
           d="m 52.65,40.057 0.868,-0.001 -0.043,-0.399 -0.869,0.039 0.044,0.361" /><g
           id="g2444"
           clip-path="url(#clipPath2446)"><path
             inkscape:connector-curvature="0"
             style="fill:none;stroke:#db0031;stroke-width:0.48673868;stroke-linecap:butt;stroke-linejoin:miter;stroke-miterlimit:3.86400008;stroke-opacity:1;stroke-dasharray:none"
             id="path2450"
             d="M 94.94601,107.932 112.69,42.21 21.653,18.704 28.828,39.911 M 94.96301,108.021 126.871,47.161 48.241,0.8240001 53.047,39.729" /></g><path
           d="m 157.688,107.03 -13.448,0 0,-2.31 5.199,0 0,-17.584 2.759,0 0,17.584 5.199,0 0.291,2.31"
           id="path2454"
           style="fill:#231f20;fill-opacity:1;fill-rule:evenodd;stroke:none"
           inkscape:connector-curvature="0" /><path
           d="m 166.629,95.769 -6.041,0 c 0,1.32801 0.254,2.36901 0.763,3.12301 0.508,0.75299 1.27,1.13699 2.287,1.15099 0.465,-0.007 0.871,-0.10301 1.219,-0.28899 0.35,-0.18701 0.64,-0.42701 0.872,-0.722 0.292,-0.365 0.514,-0.82601 0.668,-1.38201 0.154,-0.557 0.231,-1.183 0.232,-1.881 z m 2.789,-1.96299 0,0.462 C 169.411,95.899 169.272,97.191 169,98.144 c -0.271,0.95301 -0.723,1.74 -1.354,2.36 -1.012,1.04 -2.328,1.559 -3.95,1.559 -0.898,0.002 -1.709,-0.16 -2.432,-0.486 -0.724,-0.327 -1.375,-0.829 -1.954,-1.506 -0.619,-0.71999 -1.065,-1.524 -1.339,-2.41 -0.275,-0.887 -0.408,-1.951 -0.404,-3.191 0.019,-2.391 0.599,-4.25799 1.74,-5.601 1.14,-1.344 2.729,-2.028 4.766,-2.051 0.947,0 1.843,0.152 2.687,0.459 0.845,0.30601 1.624,0.76901 2.338,1.38901 l -1.016,1.588 c -0.521,-0.462 -1.077,-0.808 -1.667,-1.03901 -0.59,-0.231 -1.225,-0.346 -1.906,-0.346 -0.702,-0.002 -1.339,0.138 -1.909,0.418 -0.572,0.28 -1.049,0.709 -1.431,1.28501 -0.216,0.346 -0.372,0.75798 -0.468,1.23799 -0.097,0.479 -0.144,1.029 -0.142,1.64901 l 0,0.347 8.859,0"
           id="path2456"
           style="fill:#231f20;fill-opacity:1;fill-rule:evenodd;stroke:none"
           inkscape:connector-curvature="0" /><path
           d="M 183.038,88.72401 181.731,90.37 c -0.44,-0.49199 -0.918,-0.865 -1.434,-1.11899 C 179.781,88.997 179.252,88.87 178.71,88.869 c -0.423,0.001 -0.811,0.07701 -1.165,0.227 -0.354,0.15 -0.663,0.36201 -0.926,0.639 -0.378,0.4 -0.667,0.942 -0.864,1.624 -0.197,0.68201 -0.297,1.527 -0.297,2.53301 -0.002,0.99499 0.052,1.857 0.163,2.58799 0.111,0.73101 0.289,1.34101 0.534,1.83 0.253,0.49501 0.603,0.877 1.049,1.14801 0.445,0.26999 0.948,0.40799 1.506,0.41199 0.454,0.005 0.876,-0.07799 1.268,-0.25 0.391,-0.17099 0.821,-0.46399 1.289,-0.877 l 1.394,1.819 c -0.55,0.506 -1.15,0.888 -1.801,1.144 -0.651,0.257 -1.368,0.386 -2.15,0.387 -0.712,-0.002 -1.385,-0.129 -2.018,-0.38 -0.633,-0.25 -1.219,-0.615 -1.757,-1.093 -0.712,-0.605 -1.292,-1.416 -1.743,-2.433 -0.45,-1.01599 -0.683,-2.333 -0.697,-3.94799 -0.002,-1.09301 0.11,-2.06901 0.338,-2.92701 0.227,-0.858 0.579,-1.625 1.056,-2.299 1.022,-1.44399 2.58,-2.16499 4.676,-2.16499 0.913,-0.007 1.716,0.13599 2.411,0.42899 0.694,0.293 1.382,0.775 2.062,1.44701"
           id="path2458"
           style="fill:#231f20;fill-opacity:1;fill-rule:evenodd;stroke:none"
           inkscape:connector-curvature="0" /><path
           d="m 197.325,87.136 0,10.30801 c 0.003,0.624 -0.016,1.09399 -0.058,1.407 -0.041,0.31399 -0.119,0.625 -0.232,0.93199 -0.236,0.659 -0.686,1.181 -1.351,1.57 -0.664,0.388 -1.434,0.586 -2.309,0.595 -0.535,0.003 -1.062,-0.075 -1.583,-0.231 -0.521,-0.156 -1.048,-0.407 -1.583,-0.75 -0.278,-0.178 -0.527,-0.35 -0.747,-0.516 -0.221,-0.167 -0.484,-0.39 -0.792,-0.668 0.029,0.377 0.051,0.728 0.065,1.053 0.015,0.327 0.022,0.62 0.022,0.881 l 0,3.234 c -0.001,0.704 -0.028,1.331 -0.084,1.88 -0.054,0.55 -0.133,1.039 -0.235,1.469 l -2.702,-0.548 c 0.102,-0.415 0.181,-0.87 0.237,-1.364 0.054,-0.495 0.082,-1.051 0.083,-1.668 l 0,-17.584 2.701,0 0,10.394 c 0.578,0.657 1.208,1.171 1.888,1.54201 0.68,0.371 1.338,0.55899 1.976,0.566 0.354,-0.004 0.675,-0.06001 0.961,-0.166 0.286,-0.10501 0.498,-0.233 0.635,-0.38301 0.148,-0.159 0.266,-0.409 0.356,-0.75 0.09,-0.341 0.135,-0.764 0.138,-1.26999 l 0,-9.93301 2.614,0"
           id="path2460"
           style="fill:#231f20;fill-opacity:1;fill-rule:evenodd;stroke:none"
           inkscape:connector-curvature="0" /><path
           d="m 213.25,87.136 0,10.943 c 0,0.334 -0.029,0.655 -0.087,0.96401 -0.059,0.308 -0.146,0.59399 -0.262,0.85499 -0.275,0.629 -0.719,1.125 -1.332,1.491 -0.613,0.365 -1.312,0.551 -2.095,0.559 -0.453,0.001 -0.911,-0.058 -1.372,-0.177 -0.461,-0.118 -0.905,-0.3 -1.329,-0.545 -0.293,-0.167 -0.579,-0.359 -0.857,-0.577 -0.278,-0.218 -0.622,-0.497 -1.031,-0.838 0.001,0.441 -0.038,0.837 -0.116,1.188 -0.079,0.351 -0.205,0.696 -0.378,1.036 l -2.527,-0.693 c 0.201,-0.49 0.344,-0.975 0.429,-1.458 0.084,-0.483 0.125,-1.142 0.123,-1.97799 l 0,-10.77001 2.643,0 0,10.71201 c 0.517,0.53199 1.11,0.97 1.779,1.31399 0.669,0.344 1.277,0.52201 1.823,0.53401 0.335,-0.001 0.63,-0.05001 0.881,-0.14801 0.253,-0.098 0.453,-0.24099 0.6,-0.43 0.171,-0.21299 0.293,-0.47899 0.363,-0.79699 0.07,-0.318 0.104,-0.793 0.101,-1.42601 l 0,-9.759 2.644,0"
           id="path2462"
           style="fill:#231f20;fill-opacity:1;fill-rule:evenodd;stroke:none"
           inkscape:connector-curvature="0" /><path
           d="m 221.632,106.048 c -0.015,0.561 -0.204,1.021 -0.568,1.379 -0.362,0.359 -0.812,0.544 -1.349,0.556 -0.537,-0.014 -0.983,-0.203 -1.337,-0.567 -0.355,-0.364 -0.538,-0.82 -0.552,-1.368 0.012,-0.534 0.192,-0.982 0.538,-1.343 0.346,-0.36 0.786,-0.548 1.322,-0.562 0.55,0.014 1.009,0.202 1.376,0.562 0.365,0.361 0.555,0.809 0.57,1.343 z m -0.553,-18.912 0,14.812 -2.759,-0.433 0,-14.379 2.759,0"
           id="path2464"
           style="fill:#231f20;fill-opacity:1;fill-rule:evenodd;stroke:none"
           inkscape:connector-curvature="0" /><path
           d="m 238.436,87.136 -6.477,8.344 5.198,6.15 -3.253,0 -4.792,-6.26499 5.984,-8.22901 3.34,0 z m -9.614,0 0,18.017 c -0.004,0.602 -0.04,1.182 -0.109,1.74 -0.069,0.559 -0.15,1.037 -0.239,1.437 l -2.703,-0.636 c 0.119,-0.411 0.21,-0.881 0.277,-1.407 0.066,-0.527 0.1,-1.156 0.101,-1.884 l 0,-17.267 2.673,0"
           id="path2466"
           style="fill:#231f20;fill-opacity:1;fill-rule:evenodd;stroke:none"
           inkscape:connector-curvature="0" /><path
           d="m 258.713,88.089 c -0.291,0.24701 -0.515,0.626 -0.668,1.13401 -0.153,0.50599 -0.232,1.12999 -0.232,1.86899 l 0,10.885 -2.643,-0.52 0,-10.395 c -0.323,-0.65 -0.789,-1.189 -1.395,-1.61599 -0.606,-0.42701 -1.245,-0.64801 -1.917,-0.664 -0.326,0.004 -0.639,0.06799 -0.94,0.18699 -0.301,0.121 -0.549,0.27001 -0.744,0.44801 -0.257,0.22799 -0.434,0.529 -0.53,0.902 -0.097,0.37299 -0.143,0.919 -0.138,1.639 l 0,10.07699 -2.644,-0.52 0,-10.27899 c -0.001,-0.52001 0.025,-0.982 0.077,-1.38601 0.052,-0.40399 0.143,-0.75 0.272,-1.04 0.314,-0.67 0.811,-1.19799 1.492,-1.58 0.681,-0.38199 1.49,-0.578 2.43,-0.585 0.897,-0.002 1.708,0.168 2.431,0.50901 0.724,0.34099 1.375,0.864 1.954,1.57 0.126,-0.48201 0.295,-0.88201 0.508,-1.20201 0.213,-0.319 0.498,-0.611 0.857,-0.877 l 1.83,1.444"
           id="path2468"
           style="fill:#231f20;fill-opacity:1;fill-rule:evenodd;stroke:none"
           inkscape:connector-curvature="0" /><path
           d="m 273.514,87.136 0,10.943 c 0,0.334 -0.03,0.655 -0.087,0.96401 -0.059,0.308 -0.146,0.59399 -0.262,0.85499 -0.275,0.629 -0.72,1.125 -1.332,1.491 -0.613,0.365 -1.312,0.551 -2.096,0.559 -0.453,0.001 -0.911,-0.058 -1.372,-0.177 -0.461,-0.118 -0.903,-0.3 -1.329,-0.545 -0.293,-0.167 -0.578,-0.359 -0.856,-0.577 -0.279,-0.218 -0.622,-0.497 -1.032,-0.838 0.002,0.441 -0.038,0.837 -0.116,1.188 -0.078,0.351 -0.204,0.696 -0.377,1.036 l -2.527,-0.693 c 0.201,-0.49 0.344,-0.975 0.429,-1.458 0.084,-0.483 0.126,-1.142 0.123,-1.97799 l 0,-10.77001 2.643,0 0,10.71201 c 0.517,0.53199 1.11,0.97 1.779,1.31399 0.669,0.344 1.276,0.52201 1.823,0.53401 0.335,-0.001 0.63,-0.05001 0.882,-0.14801 0.253,-0.098 0.452,-0.24099 0.599,-0.43 0.171,-0.21299 0.293,-0.47899 0.363,-0.79699 0.07,-0.318 0.104,-0.793 0.101,-1.42601 l 0,-9.759 2.644,0"
           id="path2470"
           style="fill:#231f20;fill-opacity:1;fill-rule:evenodd;stroke:none"
           inkscape:connector-curvature="0" /><path
           d="m 287.065,90.803 c -0.248,-0.449 -0.63,-0.836 -1.147,-1.16199 -0.517,-0.32601 -1.16,-0.49701 -1.932,-0.513 -0.49,-0.001 -0.911,0.05899 -1.259,0.181 -0.349,0.122 -0.646,0.31099 -0.89,0.57 -0.391,0.36199 -0.677,0.844 -0.86,1.44799 -0.184,0.603 -0.275,1.583 -0.273,2.94101 -0.003,0.927 0.054,1.707 0.171,2.33799 0.116,0.63201 0.312,1.18 0.585,1.64601 0.276,0.46599 0.629,0.82699 1.056,1.083 0.426,0.25699 0.917,0.386 1.47,0.39 0.678,0 1.268,-0.11501 1.768,-0.34301 0.501,-0.22799 0.937,-0.566 1.311,-1.014 l 0,-7.565 z m 3.108,-3.667 c -0.157,0.44701 -0.265,1.07501 -0.323,1.884 -0.059,0.809 -0.087,1.797 -0.084,2.96701 l 0,15.93799 -2.672,0.433 0,-5.63 c 0.003,-0.51 0.011,-1.006 0.029,-1.487 0.017,-0.481 0.026,-0.832 0.029,-1.054 -0.493,0.588 -1.033,1.015 -1.619,1.281 -0.587,0.267 -1.228,0.398 -1.925,0.394 -0.519,0.001 -1.011,-0.067 -1.477,-0.202 -0.466,-0.137 -0.922,-0.348 -1.369,-0.636 -0.991,-0.644 -1.746,-1.544 -2.265,-2.699 -0.519,-1.15699 -0.78,-2.51899 -0.785,-4.08599 0.014,-2.30201 0.532,-4.09401 1.555,-5.378 1.022,-1.28301 2.469,-1.93501 4.341,-1.956 0.767,0 1.456,0.13099 2.07,0.39399 0.613,0.262 1.173,0.66001 1.677,1.194 0.041,-0.345 0.077,-0.607 0.11,-0.787 0.032,-0.179 0.083,-0.36899 0.151,-0.57 l 2.557,0"
           id="path2472"
           style="fill:#231f20;fill-opacity:1;fill-rule:evenodd;stroke:none"
           inkscape:connector-curvature="0" /><path
           d="m 321.955,107.03 -2.905,0 -2.12,-10.077 c -0.149,-0.694 -0.301,-1.461 -0.456,-2.303 -0.156,-0.84 -0.297,-1.631 -0.424,-2.37199 -0.127,-0.74201 -0.221,-1.31001 -0.282,-1.706 l -0.174,0 c -0.031,0.304 -0.098,0.777 -0.2,1.41799 -0.103,0.641 -0.227,1.35801 -0.374,2.15 -0.148,0.79201 -0.305,1.566 -0.472,2.32201 l -2.294,10.56799 -3.225,0 -2.323,-10.51 c -0.247,-1.161 -0.464,-2.275 -0.65,-3.342 -0.185,-1.06699 -0.337,-1.96499 -0.453,-2.693 l -0.175,0 c -0.095,0.625 -0.224,1.469 -0.385,2.53101 -0.161,1.06099 -0.391,2.31599 -0.689,3.76399 l -2.208,10.25 -3.021,0 4.734,-19.952 3.457,0 2.149,10.13501 c 0.224,1.068 0.43,2.13699 0.617,3.20499 0.188,1.068 0.321,1.877 0.399,2.426 l 0.175,0 c 0.073,-0.619 0.196,-1.425 0.366,-2.419 0.171,-0.99399 0.388,-2.10299 0.651,-3.32799 l 2.207,-10.01901 3.427,0 4.648,19.952"
           id="path2474"
           style="fill:#231f20;fill-opacity:1;fill-rule:evenodd;stroke:none"
           inkscape:connector-curvature="0" /><path
           d="m 327.906,106.048 c -0.014,0.561 -0.203,1.021 -0.566,1.379 -0.362,0.359 -0.814,0.544 -1.35,0.556 -0.537,-0.014 -0.982,-0.203 -1.337,-0.567 -0.354,-0.364 -0.538,-0.82 -0.551,-1.368 0.011,-0.534 0.191,-0.982 0.537,-1.343 0.346,-0.36 0.787,-0.548 1.322,-0.562 0.551,0.014 1.01,0.202 1.375,0.562 0.366,0.361 0.557,0.809 0.57,1.343 z m -0.552,-18.912 0,14.812 -2.759,-0.433 0,-14.379 2.759,0"
           id="path2476"
           style="fill:#231f20;fill-opacity:1;fill-rule:evenodd;stroke:none"
           inkscape:connector-curvature="0" /><path
           d="m 339.802,101.919 c -0.117,0.044 -0.253,0.079 -0.406,0.105 -0.155,0.026 -0.32,0.039 -0.495,0.039 -0.764,0 -1.47,-0.209 -2.116,-0.627 -0.646,-0.419 -1.257,-1.047 -1.834,-1.884 l 0,0.259 c -0.004,0.375 -0.054,0.767 -0.148,1.177 -0.096,0.41 -0.21,0.759 -0.345,1.047 l -2.585,-0.664 c 0.175,-0.432 0.311,-0.925 0.406,-1.47999 0.096,-0.555 0.144,-1.264 0.146,-2.12901 l 0,-10.626 2.672,0 0,9.32601 c 0.024,0.81799 0.324,1.50699 0.9,2.06799 0.576,0.562 1.282,0.854 2.12,0.87701 0.143,0 0.272,-0.014 0.389,-0.03901 0.116,-0.026 0.238,-0.06099 0.366,-0.10499 l 0.93,2.65599"
           id="path2478"
           style="fill:#231f20;fill-opacity:1;fill-rule:evenodd;stroke:none"
           inkscape:connector-curvature="0" /><path
           d="m 349.024,101.602 -3.543,0 c 0.004,0.76 0.033,1.536 0.087,2.328 0.055,0.792 0.114,1.46 0.175,2.003 l -2.76,-0.636 c -0.071,-0.563 -0.118,-1.176 -0.141,-1.837 -0.024,-0.661 -0.034,-1.28 -0.032,-1.858 l -1.744,0 0,-1.87699 1.744,0 0,-9.32601 c 0.006,-1.00999 0.109,-1.696 0.308,-2.057 0.199,-0.361 0.454,-0.65799 0.766,-0.888 0.246,-0.22 0.596,-0.39499 1.049,-0.52299 0.453,-0.13001 0.926,-0.19601 1.42,-0.19901 0.953,0 1.835,0.20201 2.643,0.60601 l -0.32,1.61699 c -0.229,-0.101 -0.453,-0.17299 -0.671,-0.22 -0.219,-0.046 -0.45,-0.06899 -0.693,-0.06899 -0.715,-0.01401 -1.211,0.15199 -1.49,0.49799 -0.278,0.347 -0.411,0.96 -0.399,1.841 l 0,8.72001 2.876,0 0.725,1.87699"
           id="path2480"
           style="fill:#231f20;fill-opacity:1;fill-rule:evenodd;stroke:none"
           inkscape:connector-curvature="0" /><path
           d="m 362.192,91.58301 c 0.01,0.96399 -0.286,1.79999 -0.885,2.50799 -0.601,0.708 -1.564,1.219 -2.89,1.53401 l -1.889,0.433 c -0.758,0.168 -1.295,0.40899 -1.607,0.72199 -0.314,0.313 -0.465,0.726 -0.454,1.241 0.009,0.659 0.238,1.182 0.685,1.571 0.45,0.387 1.063,0.586 1.842,0.595 0.573,-0.002 1.147,-0.092 1.721,-0.27099 0.573,-0.178 1.19,-0.43501 1.85,-0.76901 l 0.902,1.877 c -0.602,0.353 -1.294,0.637 -2.077,0.852 -0.784,0.215 -1.62,0.326 -2.512,0.332 -1.592,-0.022 -2.86,-0.44 -3.806,-1.256 -0.944,-0.815 -1.429,-1.89799 -1.452,-3.249 0.004,-1.073 0.308,-1.95099 0.911,-2.63399 0.604,-0.68301 1.482,-1.14301 2.632,-1.37902 l 1.773,-0.34599 c 0.838,-0.157 1.456,-0.421 1.851,-0.794 0.396,-0.373 0.592,-0.86799 0.588,-1.488 -0.013,-0.71499 -0.263,-1.282 -0.752,-1.69899 -0.487,-0.417 -1.138,-0.63001 -1.949,-0.639 -0.82,0.01099 -1.628,0.154 -2.426,0.429 -0.797,0.27499 -1.547,0.614 -2.251,1.015 L 351.039,88.262 c 0.853,-0.493 1.747,-0.87099 2.684,-1.13399 0.935,-0.26101 1.852,-0.39401 2.748,-0.39601 1.725,0.02101 3.103,0.469 4.135,1.343 1.032,0.87301 1.56,2.042 1.586,3.50801"
           id="path2482"
           style="fill:#231f20;fill-opacity:1;fill-rule:evenodd;stroke:none"
           inkscape:connector-curvature="0" /><path
           d="M 375.643,88.72401 374.335,90.37 c -0.439,-0.49199 -0.918,-0.865 -1.434,-1.11899 -0.516,-0.25401 -1.045,-0.38101 -1.587,-0.38201 -0.422,0.001 -0.811,0.07701 -1.165,0.227 -0.354,0.15 -0.663,0.36201 -0.925,0.639 -0.379,0.4 -0.667,0.942 -0.865,1.624 -0.197,0.68201 -0.296,1.527 -0.297,2.53301 -0.002,0.99499 0.052,1.857 0.164,2.58799 0.11,0.73101 0.288,1.34101 0.533,1.83 0.254,0.49501 0.603,0.877 1.049,1.14801 0.446,0.26999 0.948,0.40799 1.506,0.41199 0.454,0.005 0.876,-0.07799 1.268,-0.25 0.392,-0.17099 0.82,-0.46399 1.288,-0.877 l 1.395,1.819 c -0.55,0.506 -1.15,0.888 -1.801,1.144 -0.651,0.257 -1.367,0.386 -2.15,0.387 -0.712,-0.002 -1.385,-0.129 -2.018,-0.38 -0.633,-0.25 -1.219,-0.615 -1.757,-1.093 -0.712,-0.605 -1.293,-1.416 -1.743,-2.433 -0.45,-1.01599 -0.683,-2.333 -0.697,-3.94799 -10e-4,-1.09301 0.111,-2.06901 0.338,-2.92701 0.226,-0.858 0.579,-1.625 1.056,-2.299 1.022,-1.44399 2.58,-2.16499 4.677,-2.16499 0.912,-0.007 1.715,0.13599 2.41,0.42899 0.695,0.293 1.382,0.775 2.063,1.44701"
           id="path2484"
           style="fill:#231f20;fill-opacity:1;fill-rule:evenodd;stroke:none"
           inkscape:connector-curvature="0" /><path
           d="m 389.93,87.136 0,10.30801 c 0.002,0.624 -0.018,1.09399 -0.059,1.407 -0.041,0.31399 -0.118,0.625 -0.232,0.93199 -0.236,0.659 -0.686,1.181 -1.351,1.57 -0.664,0.388 -1.434,0.586 -2.309,0.595 -0.535,0.003 -1.062,-0.075 -1.583,-0.231 -0.52,-0.156 -1.047,-0.407 -1.583,-0.75 -0.278,-0.178 -0.527,-0.35 -0.748,-0.516 -0.22,-0.167 -0.484,-0.39 -0.791,-0.668 0.029,0.377 0.051,0.728 0.066,1.053 0.014,0.327 0.021,0.62 0.021,0.881 l 0,3.234 c -10e-4,0.704 -0.028,1.331 -0.083,1.88 -0.055,0.55 -0.134,1.039 -0.236,1.469 l -2.701,-0.548 c 0.102,-0.415 0.18,-0.87 0.235,-1.364 0.056,-0.495 0.083,-1.051 0.084,-1.668 l 0,-17.584 2.701,0 0,10.394 c 0.578,0.657 1.207,1.171 1.888,1.54201 0.681,0.371 1.339,0.55899 1.976,0.566 0.354,-0.004 0.675,-0.06001 0.962,-0.166 0.286,-0.10501 0.498,-0.233 0.634,-0.38301 0.148,-0.159 0.267,-0.409 0.357,-0.75 0.089,-0.341 0.135,-0.764 0.137,-1.26999 l 0,-9.93301 2.615,0"
           id="path2486"
           style="fill:#231f20;fill-opacity:1;fill-rule:evenodd;stroke:none"
           inkscape:connector-curvature="0" /><path
           d="m 402.137,94.23901 -0.087,-3.696 c -0.344,-0.585 -0.783,-1.04701 -1.319,-1.386 C 400.195,88.818 399.618,88.644 399,88.637 c -0.744,0.006 -1.312,0.22601 -1.703,0.661 -0.392,0.435 -0.589,1.052 -0.592,1.852 -0.004,0.46501 0.054,0.855 0.17,1.17301 0.117,0.31699 0.313,0.62799 0.585,0.93399 0.287,0.334 0.744,0.59001 1.369,0.769 0.625,0.178 1.437,0.26901 2.437,0.27001 0.111,0 0.235,-0.006 0.37,-0.017 0.134,-0.012 0.301,-0.025 0.501,-0.04 z M 405.912,88.32 c -0.545,0.324 -0.885,0.744 -1.02,1.259 -0.135,0.516 -0.192,1.261 -0.171,2.234 0.006,1.081 0.024,2.11 0.058,3.087 0.034,0.97601 0.053,1.737 0.058,2.28401 0.003,0.68499 -0.017,1.20599 -0.058,1.56199 -0.041,0.357 -0.119,0.684 -0.232,0.97901 -0.284,0.76599 -0.79,1.34199 -1.518,1.72899 -0.727,0.386 -1.625,0.581 -2.693,0.581 -1.398,-0.029 -2.589,-0.246 -3.572,-0.65 -0.985,-0.404 -1.827,-0.823 -2.528,-1.256 l 1.22,-1.90599 c 0.611,0.461 1.313,0.84699 2.106,1.15899 0.792,0.31201 1.582,0.474 2.367,0.488 0.984,-0.014 1.616,-0.277 1.895,-0.791 0.28,-0.515 0.403,-1.20399 0.37,-2.068 l 0,-0.95299 c -0.185,0.014 -0.358,0.02198 -0.519,0.025 -0.16,0.003 -0.325,0.004 -0.497,0.004 -2.367,-0.005 -4.19,-0.44301 -5.468,-1.31401 -1.278,-0.87099 -1.924,-2.14599 -1.939,-3.82499 0.015,-1.39 0.436,-2.444 1.264,-3.16201 0.828,-0.719 1.975,-1.08 3.442,-1.084 0.839,0.016 1.543,0.14701 2.108,0.392 0.566,0.246 1.014,0.51801 1.341,0.815 0.327,0.297 0.553,0.53099 0.675,0.7 0.177,-0.50799 0.432,-0.937 0.766,-1.289 0.333,-0.352 0.727,-0.615 1.18,-0.79 l 1.365,1.79"
           id="path2488"
           style="fill:#231f20;fill-opacity:1;fill-rule:evenodd;stroke:none"
           inkscape:connector-curvature="0" /><path
           d="m 417.252,107.434 c -0.451,0.272 -0.943,0.471 -1.474,0.596 -0.531,0.124 -1.095,0.185 -1.692,0.184 -0.536,0.001 -1.024,-0.052 -1.463,-0.162 -0.438,-0.111 -0.832,-0.287 -1.18,-0.531 -0.411,-0.268 -0.78,-0.692 -1.107,-1.275 -0.327,-0.581 -0.5,-1.359 -0.52,-2.335 0,-0.095 0.001,-0.308 0.002,-0.637 0.002,-0.329 0.007,-0.661 0.016,-0.997 0.009,-0.335 0.021,-0.56 0.041,-0.675 l -1.424,0 0,-1.87699 1.395,0 0,-12.58901 2.701,0 0,12.58901 3.137,0 0.697,1.87699 -3.863,0 0,2.338 c 0.004,0.741 0.176,1.31 0.515,1.707 0.339,0.398 0.816,0.599 1.431,0.603 0.331,-0.003 0.649,-0.054 0.955,-0.155 0.306,-0.1 0.616,-0.231 0.933,-0.393 l 0.9,1.732"
           id="path2490"
           style="fill:#231f20;fill-opacity:1;fill-rule:evenodd;stroke:none"
           inkscape:connector-curvature="0" /><path
           d="m 425.049,101.602 -3.543,0 c 0.003,0.76 0.032,1.536 0.087,2.328 0.053,0.792 0.111,1.46 0.174,2.003 l -2.76,-0.636 c -0.07,-0.563 -0.117,-1.176 -0.142,-1.837 -0.023,-0.661 -0.034,-1.28 -0.032,-1.858 l -1.743,0 0,-1.87699 1.743,0 0,-9.32601 c 0.006,-1.00999 0.109,-1.696 0.309,-2.057 0.199,-0.361 0.454,-0.65799 0.765,-0.888 0.247,-0.22 0.596,-0.39499 1.05,-0.52299 0.453,-0.13001 0.927,-0.19601 1.419,-0.19901 0.954,0 1.835,0.20201 2.644,0.60601 L 424.7,88.955 c -0.229,-0.101 -0.453,-0.17299 -0.672,-0.22 -0.217,-0.046 -0.449,-0.06899 -0.693,-0.06899 -0.714,-0.01401 -1.21,0.15199 -1.488,0.49799 -0.279,0.347 -0.412,0.96 -0.4,1.841 l 0,8.72001 2.875,0 0.727,1.87699"
           id="path2492"
           style="fill:#231f20;fill-opacity:1;fill-rule:evenodd;stroke:none"
           inkscape:connector-curvature="0" /><path
           d="m 159.254,116.01 0,19.894 -2.8,0 0,-8.172 -7.594,0 0,8.172 -2.743,0 0,-19.894 2.743,0 0,9.442 7.594,0 0,-9.442 2.8,0"
           id="path2494"
           style="fill:#231f20;fill-opacity:1;fill-rule:evenodd;stroke:none"
           inkscape:connector-curvature="0" /><path
           d="m 173.621,122.997 c -0.01,-1.877 -0.301,-3.24 -0.874,-4.089 -0.572,-0.849 -1.369,-1.266 -2.389,-1.252 -1.127,-0.031 -1.971,0.399 -2.534,1.288 -0.563,0.889 -0.845,2.424 -0.845,4.601 -0.008,1.813 0.248,3.148 0.766,4.007 0.518,0.859 1.351,1.285 2.498,1.277 1.05,0.038 1.872,-0.375 2.468,-1.237 0.596,-0.863 0.899,-2.394 0.91,-4.595 z m 2.974,0.115 c 0,1.469 -0.232,2.786 -0.698,3.952 -0.465,1.165 -1.168,2.089 -2.108,2.771 -0.941,0.681 -2.123,1.029 -3.546,1.044 -1.927,-0.025 -3.438,-0.711 -4.534,-2.057 -1.096,-1.346 -1.654,-3.202 -1.674,-5.565 0.019,-2.378 0.579,-4.241 1.682,-5.591 1.101,-1.349 2.629,-2.036 4.583,-2.061 1.943,0.026 3.471,0.704 4.587,2.033 1.116,1.328 1.685,3.153 1.708,5.474"
           id="path2496"
           style="fill:#231f20;fill-opacity:1;fill-rule:evenodd;stroke:none"
           inkscape:connector-curvature="0" /><path
           d="m 190.999,117.598 -1.299,1.646 c -0.438,-0.493 -0.913,-0.866 -1.426,-1.12 -0.513,-0.253 -1.039,-0.381 -1.577,-0.382 -0.421,0.002 -0.807,0.077 -1.159,0.227 -0.352,0.15 -0.659,0.363 -0.92,0.639 -0.377,0.401 -0.663,0.942 -0.859,1.624 -0.196,0.682 -0.295,1.527 -0.296,2.534 -0.002,0.994 0.052,1.857 0.162,2.588 0.11,0.731 0.287,1.341 0.531,1.83 0.252,0.494 0.6,0.877 1.043,1.147 0.443,0.271 0.943,0.408 1.498,0.412 0.45,0.005 0.87,-0.078 1.259,-0.249 0.389,-0.172 0.817,-0.464 1.281,-0.877 l 1.386,1.819 c -0.546,0.506 -1.142,0.887 -1.79,1.144 -0.647,0.257 -1.359,0.386 -2.136,0.386 -0.709,-0.002 -1.378,-0.128 -2.007,-0.379 -0.629,-0.251 -1.211,-0.616 -1.747,-1.094 -0.708,-0.605 -1.285,-1.416 -1.733,-2.432 -0.447,-1.017 -0.678,-2.333 -0.692,-3.949 -0.002,-1.093 0.109,-2.068 0.335,-2.927 0.226,-0.858 0.576,-1.625 1.05,-2.299 1.016,-1.443 2.565,-2.165 4.649,-2.165 0.907,-0.007 1.706,0.136 2.397,0.429 0.69,0.293 1.373,0.776 2.05,1.448"
           id="path2498"
           style="fill:#231f20;fill-opacity:1;fill-rule:evenodd;stroke:none"
           inkscape:connector-curvature="0" /><path
           d="m 205.924,116.01 0,10.308 c 0.002,0.624 -0.017,1.093 -0.058,1.407 -0.041,0.314 -0.118,0.625 -0.23,0.931 -0.236,0.659 -0.683,1.182 -1.344,1.57 -0.66,0.388 -1.425,0.587 -2.295,0.596 -0.532,0.003 -1.057,-0.075 -1.574,-0.231 -0.517,-0.157 -1.042,-0.407 -1.573,-0.751 -0.277,-0.177 -0.525,-0.349 -0.744,-0.516 -0.218,-0.166 -0.481,-0.389 -0.786,-0.668 0.028,0.377 0.05,0.728 0.065,1.054 0.014,0.326 0.021,0.619 0.021,0.881 l 0,3.234 c -0.001,0.704 -0.028,1.331 -0.083,1.88 -0.054,0.549 -0.133,1.039 -0.235,1.469 l -2.685,-0.549 c 0.102,-0.415 0.18,-0.87 0.235,-1.364 0.055,-0.494 0.082,-1.05 0.083,-1.667 l 0,-17.584 2.685,0 0,10.394 c 0.575,0.656 1.201,1.17 1.877,1.541 0.676,0.372 1.331,0.56 1.964,0.567 0.352,-0.005 0.671,-0.06 0.956,-0.166 0.284,-0.106 0.495,-0.234 0.632,-0.383 0.146,-0.16 0.264,-0.41 0.353,-0.751 0.089,-0.34 0.135,-0.763 0.137,-1.27 l 0,-9.932 2.599,0"
           id="path2500"
           style="fill:#231f20;fill-opacity:1;fill-rule:evenodd;stroke:none"
           inkscape:connector-curvature="0" /><path
           d="m 221.64,120.456 c 0.008,0.964 -0.285,1.801 -0.881,2.509 -0.597,0.708 -1.555,1.219 -2.873,1.533 l -1.877,0.434 c -0.755,0.168 -1.288,0.409 -1.599,0.721 -0.31,0.313 -0.461,0.727 -0.451,1.242 0.009,0.659 0.236,1.182 0.683,1.57 0.445,0.388 1.055,0.587 1.829,0.595 0.571,-0.001 1.14,-0.091 1.711,-0.27 0.57,-0.179 1.183,-0.435 1.84,-0.769 l 0.896,1.876 c -0.599,0.353 -1.287,0.638 -2.064,0.853 -0.779,0.215 -1.612,0.326 -2.499,0.331 -1.581,-0.021 -2.842,-0.439 -3.782,-1.255 -0.939,-0.816 -1.421,-1.899 -1.444,-3.249 0.005,-1.073 0.307,-1.951 0.906,-2.634 0.6,-0.684 1.472,-1.143 2.617,-1.379 l 1.761,-0.347 c 0.834,-0.156 1.447,-0.421 1.841,-0.793 0.393,-0.373 0.589,-0.869 0.585,-1.488 -0.013,-0.716 -0.262,-1.283 -0.747,-1.7 -0.487,-0.417 -1.132,-0.629 -1.939,-0.638 -0.814,0.011 -1.618,0.154 -2.41,0.429 -0.793,0.275 -1.539,0.613 -2.238,1.014 l -0.953,-1.905 c 0.848,-0.494 1.737,-0.871 2.667,-1.134 0.931,-0.262 1.842,-0.394 2.732,-0.397 1.716,0.022 3.086,0.47 4.112,1.343 1.025,0.874 1.55,2.043 1.577,3.508"
           id="path2502"
           style="fill:#231f20;fill-opacity:1;fill-rule:evenodd;stroke:none"
           inkscape:connector-curvature="0" /><path
           d="m 235.732,117.598 -1.299,1.646 c -0.438,-0.493 -0.912,-0.866 -1.426,-1.12 -0.513,-0.253 -1.038,-0.381 -1.577,-0.382 -0.42,0.002 -0.807,0.077 -1.159,0.227 -0.351,0.15 -0.658,0.363 -0.92,0.639 -0.376,0.401 -0.663,0.942 -0.859,1.624 -0.196,0.682 -0.295,1.527 -0.296,2.534 -0.002,0.994 0.052,1.857 0.162,2.588 0.111,0.731 0.288,1.341 0.531,1.83 0.252,0.494 0.6,0.877 1.043,1.147 0.443,0.271 0.943,0.408 1.498,0.412 0.451,0.005 0.871,-0.078 1.259,-0.249 0.39,-0.172 0.817,-0.464 1.282,-0.877 l 1.385,1.819 c -0.545,0.506 -1.142,0.887 -1.79,1.144 -0.647,0.257 -1.359,0.386 -2.136,0.386 -0.708,-0.002 -1.378,-0.128 -2.007,-0.379 -0.629,-0.251 -1.211,-0.616 -1.746,-1.094 -0.708,-0.605 -1.285,-1.416 -1.733,-2.432 -0.448,-1.017 -0.678,-2.333 -0.693,-3.949 -0.002,-1.093 0.11,-2.068 0.336,-2.927 0.226,-0.858 0.575,-1.625 1.05,-2.299 1.015,-1.443 2.564,-2.165 4.648,-2.165 0.907,-0.007 1.706,0.136 2.397,0.429 0.691,0.293 1.374,0.776 2.05,1.448"
           id="path2504"
           style="fill:#231f20;fill-opacity:1;fill-rule:evenodd;stroke:none"
           inkscape:connector-curvature="0" /><path
           d="m 250.657,116.01 0,10.308 c 0.003,0.624 -0.016,1.093 -0.057,1.407 -0.041,0.314 -0.119,0.625 -0.231,0.931 -0.235,0.659 -0.682,1.182 -1.343,1.57 -0.66,0.388 -1.425,0.587 -2.296,0.596 -0.531,0.003 -1.056,-0.075 -1.574,-0.231 -0.516,-0.157 -1.041,-0.407 -1.573,-0.751 -0.276,-0.177 -0.524,-0.349 -0.743,-0.516 -0.219,-0.166 -0.482,-0.389 -0.787,-0.668 0.029,0.377 0.051,0.728 0.065,1.054 0.015,0.326 0.022,0.619 0.022,0.881 l 0,3.234 c 0,0.704 -0.029,1.331 -0.083,1.88 -0.055,0.549 -0.133,1.039 -0.235,1.469 l -2.685,-0.549 c 0.101,-0.415 0.179,-0.87 0.234,-1.364 0.055,-0.494 0.082,-1.05 0.083,-1.667 l 0,-17.584 2.686,0 0,10.394 c 0.575,0.656 1.2,1.17 1.877,1.541 0.675,0.372 1.33,0.56 1.962,0.567 0.354,-0.005 0.672,-0.06 0.958,-0.166 0.284,-0.106 0.494,-0.234 0.631,-0.383 0.147,-0.16 0.265,-0.41 0.354,-0.751 0.089,-0.34 0.134,-0.763 0.137,-1.27 l 0,-9.932 2.598,0"
           id="path2506"
           style="fill:#231f20;fill-opacity:1;fill-rule:evenodd;stroke:none"
           inkscape:connector-curvature="0" /><path
           d="m 268.076,116.963 c -0.29,0.247 -0.512,0.625 -0.664,1.133 -0.152,0.507 -0.229,1.13 -0.231,1.869 l 0,10.886 -2.627,-0.521 0,-10.394 c -0.322,-0.65 -0.783,-1.189 -1.386,-1.617 -0.603,-0.427 -1.238,-0.648 -1.906,-0.663 -0.324,0.004 -0.636,0.067 -0.935,0.187 -0.298,0.121 -0.545,0.27 -0.739,0.448 -0.255,0.228 -0.431,0.529 -0.527,0.902 -0.096,0.373 -0.142,0.919 -0.137,1.638 l 0,10.078 -2.628,-0.52 0,-10.279 c -10e-4,-0.52 0.023,-0.982 0.076,-1.386 0.052,-0.405 0.143,-0.751 0.271,-1.04 0.312,-0.671 0.806,-1.198 1.483,-1.58 0.677,-0.383 1.481,-0.578 2.414,-0.586 0.894,-0.001 1.699,0.169 2.419,0.509 0.719,0.341 1.366,0.865 1.941,1.571 0.125,-0.482 0.293,-0.883 0.506,-1.202 0.211,-0.32 0.495,-0.612 0.852,-0.878 l 1.818,1.445"
           id="path2508"
           style="fill:#231f20;fill-opacity:1;fill-rule:evenodd;stroke:none"
           inkscape:connector-curvature="0" /><path
           d="m 277.304,116.038 -0.462,1.646 c -0.165,-0.042 -0.332,-0.044 -0.501,-0.007 -0.17,0.037 -0.301,0.107 -0.394,0.209 -0.142,0.107 -0.24,0.305 -0.296,0.592 -0.055,0.288 -0.082,0.803 -0.08,1.545 l 0,13.022 c 0.006,0.895 -0.005,1.689 -0.032,2.378 -0.027,0.69 -0.102,1.274 -0.227,1.751 l -2.772,-0.577 c 0.114,-0.538 0.196,-1.116 0.245,-1.733 0.05,-0.617 0.073,-1.426 0.072,-2.426 l 0,-13.108 c -0.003,-0.686 0.034,-1.206 0.113,-1.559 0.079,-0.354 0.223,-0.671 0.436,-0.953 0.269,-0.386 0.582,-0.667 0.942,-0.841 0.359,-0.173 0.796,-0.259 1.31,-0.256 0.313,-0.001 0.597,0.022 0.856,0.072 0.257,0.049 0.521,0.131 0.79,0.245"
           id="path2510"
           style="fill:#231f20;fill-opacity:1;fill-rule:evenodd;stroke:none"
           inkscape:connector-curvature="0" /><path
           d="m 289.39,124.643 -6.006,0 c 0,1.327 0.253,2.368 0.758,3.122 0.505,0.753 1.263,1.137 2.274,1.151 0.462,-0.006 0.866,-0.102 1.212,-0.289 0.347,-0.186 0.636,-0.426 0.866,-0.722 0.29,-0.365 0.512,-0.825 0.665,-1.382 0.153,-0.556 0.23,-1.183 0.231,-1.88 z m 2.771,-1.964 0,0.463 c -0.007,1.631 -0.144,2.923 -0.415,3.876 -0.269,0.953 -0.719,1.74 -1.346,2.36 -1.005,1.04 -2.314,1.559 -3.926,1.559 -0.893,0.002 -1.7,-0.16 -2.419,-0.487 -0.719,-0.327 -1.367,-0.829 -1.942,-1.505 -0.615,-0.72 -1.058,-1.524 -1.331,-2.411 -0.273,-0.887 -0.406,-1.95 -0.401,-3.19 0.018,-2.391 0.595,-4.258 1.728,-5.602 1.135,-1.344 2.714,-2.027 4.74,-2.05 0.94,-10e-4 1.832,0.152 2.671,0.458 0.839,0.306 1.614,0.769 2.324,1.39 l -1.01,1.588 c -0.519,-0.462 -1.071,-0.809 -1.657,-1.039 -0.586,-0.231 -1.218,-0.347 -1.895,-0.347 -0.698,-0.001 -1.331,0.139 -1.898,0.419 -0.569,0.28 -1.042,0.708 -1.423,1.284 -0.215,0.346 -0.369,0.759 -0.465,1.239 -0.096,0.479 -0.142,1.028 -0.142,1.649 l 0,0.346 8.807,0"
           id="path2512"
           style="fill:#231f20;fill-opacity:1;fill-rule:evenodd;stroke:none"
           inkscape:connector-curvature="0" /><path
           d="m 304.148,116.01 2.831,0 0,19.894 -2.831,0 0,-19.894 z m 13.659,0 -7.536,10.653 7.275,9.241 -3.493,0 -6.959,-9.269 7.103,-10.625 3.61,0"
           id="path2514"
           style="fill:#231f20;fill-opacity:1;fill-rule:evenodd;stroke:none"
           inkscape:connector-curvature="0" /><path
           d="m 328.18,123.112 -0.087,-3.695 c -0.341,-0.585 -0.779,-1.047 -1.31,-1.386 -0.532,-0.34 -1.106,-0.513 -1.721,-0.52 -0.741,0.006 -1.304,0.225 -1.694,0.661 -0.389,0.434 -0.585,1.052 -0.588,1.851 -0.003,0.465 0.054,0.856 0.17,1.173 0.115,0.317 0.31,0.629 0.581,0.935 0.285,0.334 0.74,0.59 1.361,0.769 0.621,0.178 1.428,0.268 2.421,0.27 0.112,-0.001 0.235,-0.006 0.369,-0.018 0.132,-0.011 0.298,-0.025 0.498,-0.04 z m 3.754,-5.919 c -0.542,0.324 -0.881,0.745 -1.015,1.26 -0.135,0.516 -0.19,1.26 -0.169,2.234 0.004,1.081 0.023,2.11 0.057,3.086 0.034,0.976 0.053,1.738 0.057,2.285 0.003,0.685 -0.016,1.206 -0.057,1.562 -0.04,0.357 -0.118,0.683 -0.231,0.979 -0.282,0.765 -0.786,1.342 -1.509,1.728 -0.722,0.387 -1.615,0.581 -2.677,0.582 -1.39,-0.03 -2.574,-0.246 -3.552,-0.65 -0.979,-0.405 -1.816,-0.823 -2.512,-1.256 l 1.212,-1.906 c 0.608,0.461 1.306,0.846 2.094,1.158 0.788,0.313 1.572,0.475 2.353,0.488 0.978,-0.013 1.606,-0.276 1.884,-0.791 0.277,-0.514 0.401,-1.203 0.368,-2.068 l 0,-0.952 c -0.184,0.013 -0.356,0.022 -0.516,0.025 -0.159,0.003 -0.325,0.004 -0.494,0.003 -2.354,-0.004 -4.165,-0.442 -5.436,-1.314 -1.27,-0.87 -1.913,-2.146 -1.927,-3.825 0.014,-1.389 0.433,-2.444 1.256,-3.162 0.823,-0.718 1.964,-1.079 3.421,-1.082 0.835,0.015 1.533,0.145 2.096,0.391 0.563,0.246 1.008,0.517 1.334,0.815 0.325,0.297 0.548,0.53 0.671,0.699 0.176,-0.507 0.429,-0.936 0.761,-1.288 0.331,-0.352 0.723,-0.615 1.173,-0.79 l 1.358,1.789"
           id="path2516"
           style="fill:#231f20;fill-opacity:1;fill-rule:evenodd;stroke:none"
           inkscape:connector-curvature="0" /><path
           d="m 343.899,130.793 c -0.116,0.044 -0.251,0.078 -0.404,0.104 -0.152,0.026 -0.316,0.039 -0.49,0.04 -0.762,0 -1.463,-0.209 -2.105,-0.628 -0.642,-0.418 -1.249,-1.046 -1.822,-1.884 l 0,0.26 c -0.005,0.374 -0.055,0.767 -0.148,1.177 -0.095,0.41 -0.209,0.759 -0.343,1.047 l -2.57,-0.664 c 0.174,-0.433 0.309,-0.926 0.404,-1.481 0.095,-0.554 0.143,-1.264 0.144,-2.129 l 0,-10.625 2.657,0 0,9.326 c 0.024,0.817 0.323,1.507 0.895,2.068 0.572,0.561 1.276,0.854 2.108,0.877 0.141,-0.001 0.27,-0.014 0.386,-0.039 0.116,-0.026 0.238,-0.062 0.365,-0.105 l 0.923,2.656"
           id="path2518"
           style="fill:#231f20;fill-opacity:1;fill-rule:evenodd;stroke:none"
           inkscape:connector-curvature="0" /><path
           d="m 351.654,116.038 -0.463,1.646 c -0.165,-0.042 -0.332,-0.044 -0.501,-0.007 -0.169,0.037 -0.299,0.107 -0.393,0.209 -0.142,0.107 -0.24,0.305 -0.296,0.592 -0.056,0.288 -0.082,0.803 -0.079,1.545 l 0,13.022 c 0.005,0.895 -0.006,1.689 -0.033,2.378 -0.027,0.69 -0.103,1.274 -0.228,1.751 l -2.771,-0.577 c 0.114,-0.538 0.196,-1.116 0.245,-1.733 0.05,-0.617 0.073,-1.426 0.072,-2.426 l 0,-13.108 c -0.004,-0.686 0.033,-1.206 0.112,-1.559 0.079,-0.354 0.224,-0.671 0.437,-0.953 0.268,-0.386 0.583,-0.667 0.942,-0.841 0.359,-0.173 0.795,-0.259 1.31,-0.256 0.312,-0.001 0.597,0.022 0.855,0.072 0.258,0.049 0.522,0.131 0.791,0.245"
           id="path2520"
           style="fill:#231f20;fill-opacity:1;fill-rule:evenodd;stroke:none"
           inkscape:connector-curvature="0" /><path
           d="m 365.53,120.456 c 0.009,0.964 -0.284,1.801 -0.881,2.509 -0.597,0.708 -1.554,1.219 -2.873,1.533 l -1.877,0.434 c -0.754,0.168 -1.288,0.409 -1.598,0.721 -0.312,0.313 -0.462,0.727 -0.451,1.242 0.008,0.659 0.236,1.182 0.681,1.57 0.446,0.388 1.056,0.587 1.83,0.595 0.571,-0.001 1.141,-0.091 1.711,-0.27 0.571,-0.179 1.184,-0.435 1.841,-0.769 l 0.895,1.876 c -0.598,0.353 -1.287,0.638 -2.065,0.853 -0.778,0.215 -1.61,0.326 -2.497,0.331 -1.582,-0.021 -2.844,-0.439 -3.782,-1.255 -0.941,-0.816 -1.421,-1.899 -1.444,-3.249 0.003,-1.073 0.305,-1.951 0.906,-2.634 0.599,-0.684 1.471,-1.143 2.616,-1.379 l 1.761,-0.347 c 0.834,-0.156 1.448,-0.421 1.842,-0.793 0.392,-0.373 0.587,-0.869 0.584,-1.488 -0.012,-0.716 -0.262,-1.283 -0.748,-1.7 -0.485,-0.417 -1.13,-0.629 -1.937,-0.638 -0.815,0.011 -1.618,0.154 -2.411,0.429 -0.793,0.275 -1.538,0.613 -2.237,1.014 l -0.954,-1.905 c 0.848,-0.494 1.737,-0.871 2.667,-1.134 0.931,-0.262 1.841,-0.394 2.733,-0.397 1.715,0.022 3.085,0.47 4.11,1.343 1.026,0.874 1.552,2.043 1.578,3.508"
           id="path2522"
           style="fill:#231f20;fill-opacity:1;fill-rule:evenodd;stroke:none"
           inkscape:connector-curvature="0" /><path
           d="m 377.457,130.793 c -0.117,0.044 -0.252,0.078 -0.404,0.104 -0.153,0.026 -0.317,0.039 -0.491,0.04 -0.761,0 -1.462,-0.209 -2.105,-0.628 -0.642,-0.418 -1.249,-1.046 -1.822,-1.884 l 0,0.26 c -0.004,0.374 -0.054,0.767 -0.148,1.177 -0.094,0.41 -0.209,0.759 -0.342,1.047 l -2.571,-0.664 c 0.175,-0.433 0.31,-0.926 0.405,-1.481 0.094,-0.554 0.142,-1.264 0.144,-2.129 l 0,-10.625 2.656,0 0,9.326 c 0.025,0.817 0.323,1.507 0.895,2.068 0.573,0.561 1.276,0.854 2.108,0.877 0.142,-0.001 0.271,-0.014 0.386,-0.039 0.116,-0.026 0.238,-0.062 0.365,-0.105 l 0.924,2.656"
           id="path2524"
           style="fill:#231f20;fill-opacity:1;fill-rule:evenodd;stroke:none"
           inkscape:connector-curvature="0" /><path
           d="m 392.4,116.963 c -0.29,0.247 -0.51,0.625 -0.664,1.133 -0.152,0.507 -0.229,1.13 -0.23,1.869 l 0,10.886 -2.628,-0.521 0,-10.394 c -0.321,-0.65 -0.783,-1.189 -1.386,-1.617 -0.602,-0.427 -1.238,-0.648 -1.906,-0.663 -0.323,0.004 -0.636,0.067 -0.935,0.187 -0.298,0.121 -0.545,0.27 -0.739,0.448 -0.256,0.228 -0.431,0.529 -0.527,0.902 -0.096,0.373 -0.142,0.919 -0.137,1.638 l 0,10.078 -2.628,-0.52 0,-10.279 c -10e-4,-0.52 0.024,-0.982 0.076,-1.386 0.052,-0.405 0.143,-0.751 0.271,-1.04 0.312,-0.671 0.806,-1.198 1.483,-1.58 0.677,-0.383 1.482,-0.578 2.414,-0.586 0.893,-0.001 1.699,0.169 2.419,0.509 0.719,0.341 1.366,0.865 1.942,1.571 0.125,-0.482 0.293,-0.883 0.505,-1.202 0.211,-0.32 0.496,-0.612 0.852,-0.878 l 1.818,1.445"
           id="path2526"
           style="fill:#231f20;fill-opacity:1;fill-rule:evenodd;stroke:none"
           inkscape:connector-curvature="0" /><path
           d="m 408.5,116.01 0,10.308 c 0.003,0.624 -0.017,1.093 -0.058,1.407 -0.041,0.314 -0.118,0.625 -0.231,0.931 -0.234,0.659 -0.682,1.182 -1.342,1.57 -0.66,0.388 -1.426,0.587 -2.296,0.596 -0.531,0.003 -1.055,-0.075 -1.573,-0.231 -0.518,-0.157 -1.042,-0.407 -1.574,-0.751 -0.277,-0.177 -0.525,-0.349 -0.743,-0.516 -0.219,-0.166 -0.482,-0.389 -0.787,-0.668 0.029,0.377 0.05,0.728 0.065,1.054 0.015,0.326 0.021,0.619 0.021,0.881 l 0,3.234 c 0,0.704 -0.028,1.331 -0.083,1.88 -0.054,0.549 -0.132,1.039 -0.234,1.469 l -2.686,-0.549 c 0.102,-0.415 0.18,-0.87 0.236,-1.364 0.054,-0.494 0.081,-1.05 0.083,-1.667 l 0,-17.584 2.684,0 0,10.394 c 0.576,0.656 1.202,1.17 1.877,1.541 0.676,0.372 1.33,0.56 1.963,0.567 0.354,-0.005 0.672,-0.06 0.957,-0.166 0.284,-0.106 0.495,-0.234 0.632,-0.383 0.147,-0.16 0.265,-0.41 0.354,-0.751 0.089,-0.34 0.134,-0.763 0.136,-1.27 l 0,-9.932 2.599,0"
           id="path2528"
           style="fill:#231f20;fill-opacity:1;fill-rule:evenodd;stroke:none"
           inkscape:connector-curvature="0" /><path
           d="m 422.426,124.643 -6.006,0 c 0,1.327 0.253,2.368 0.758,3.122 0.505,0.753 1.263,1.137 2.273,1.151 0.463,-0.006 0.866,-0.102 1.213,-0.289 0.347,-0.186 0.636,-0.426 0.866,-0.722 0.29,-0.365 0.512,-0.825 0.664,-1.382 0.154,-0.556 0.231,-1.183 0.232,-1.88 z m 2.771,-1.964 0,0.463 c -0.007,1.631 -0.144,2.923 -0.415,3.876 -0.269,0.953 -0.719,1.74 -1.346,2.36 -1.005,1.04 -2.314,1.559 -3.927,1.559 -0.893,0.002 -1.698,-0.16 -2.418,-0.487 -0.719,-0.327 -1.366,-0.829 -1.942,-1.505 -0.615,-0.72 -1.059,-1.524 -1.332,-2.411 -0.272,-0.887 -0.405,-1.95 -0.4,-3.19 0.019,-2.391 0.595,-4.258 1.729,-5.602 1.133,-1.344 2.713,-2.027 4.739,-2.05 0.94,-10e-4 1.831,0.152 2.671,0.458 0.839,0.306 1.614,0.769 2.324,1.39 l -1.011,1.588 c -0.517,-0.462 -1.07,-0.809 -1.657,-1.039 -0.586,-0.231 -1.217,-0.347 -1.895,-0.347 -0.697,-0.001 -1.33,0.139 -1.897,0.419 -0.568,0.28 -1.043,0.708 -1.423,1.284 -0.215,0.346 -0.369,0.759 -0.466,1.239 -0.095,0.479 -0.141,1.028 -0.14,1.649 l 0,0.346 8.806,0"
           id="path2530"
           style="fill:#231f20;fill-opacity:1;fill-rule:evenodd;stroke:none"
           inkscape:connector-curvature="0" /><path
           d="m 153.757,60.472 0,8.524 -1.92,0 0,-7.959 c 0,-1.575 -0.685,-2.414 -2.087,-2.414 -1.418,0 -2.053,0.599 -2.053,2.414 l 0,7.959 -1.936,0 0,-8.541 c 0,-1.901 0.952,-3.51 3.989,-3.51 2.538,0 4.007,1.353 4.007,3.527"
           id="path2532"
           style="fill:#db0031;fill-opacity:1;fill-rule:evenodd;stroke:none"
           inkscape:connector-curvature="0" /><path
           d="m 165.755,57.151 0,11.845 -1.819,0 0.034,-5.409 c 0,-1.078 0.116,-2.773 0.166,-3.372 l -0.05,-0.052 c -0.15,0.548 -0.65,1.952 -1.185,3.048 l -2.804,5.785 -2.17,0 0,-11.845 1.886,0 -0.066,5.734 c -0.018,1.045 -0.034,2.294 -0.118,3.287 l 0.051,0.05201 c 0.216,-0.70301 0.851,-2.192 1.468,-3.51001 l 2.587,-5.563 2.02,0"
           id="path2534"
           style="fill:#db0031;fill-opacity:1;fill-rule:evenodd;stroke:none"
           inkscape:connector-curvature="0" /><path
           d="m 169.975,68.996 1.96899,0 0,-11.846 -1.96899,0 0,11.846 z"
           id="path2536"
           style="fill:#db0031;fill-opacity:1;fill-rule:nonzero;stroke:none"
           inkscape:connector-curvature="0" /><path
           d="m 184.109,68.996 -2.003,0 -2.119,-6.607 c -0.568,-1.764 -0.701,-2.482 -0.701,-2.482 l -0.034,0 c 0,0 -0.133,0.873 -0.601,2.379 l -2.086,6.71 -2.104,0 3.89,-11.897 1.786,0 3.972,11.897"
           id="path2538"
           style="fill:#db0031;fill-opacity:1;fill-rule:evenodd;stroke:none"
           inkscape:connector-curvature="0" /><path
           d="m 193.285,57.151 0,1.678 -4.624,0 0,3.697 3.522,0 0,1.626 -3.556,0 0,3.235 4.24,0 0.251,1.609 -6.41,0 0,-11.845 6.577,0"
           id="path2540"
           style="fill:#db0031;fill-opacity:1;fill-rule:evenodd;stroke:none"
           inkscape:connector-curvature="0" /><path
           d="m 199.74,67.40501 c 1.703,0 2.337,-0.61701 2.337,-1.81501 0,-0.61599 -0.2,-1.11299 -0.517,-1.438 -0.351,-0.36 -0.885,-0.496 -1.886,-0.496 l -0.986,0 0,3.74901 1.052,0 z m 4.958,-10.25401 -1.703,2.841 c -0.6,0.993 -1.369,2.14 -1.786,2.362 1.803,0 2.871,1.559 2.871,3.253 0,1.848 -1.168,3.389 -3.755,3.389 l -3.523,0 0,-11.845 1.886,0 0,5.117 c 0.368,-0.016 0.535,-0.136 0.752,-0.358 0.634,-0.651 1.168,-1.473 1.97,-2.928 l 1.001,-1.831 2.287,0"
           id="path2542"
           style="fill:#db0031;fill-opacity:1;fill-rule:evenodd;stroke:none"
           inkscape:connector-curvature="0" /><path
           d="m 215.141,60.728 c 0,1.781 -1.168,2.876 -2.837,3.372 l -1.369,0.412 c -1.135,0.342 -1.536,0.718 -1.536,1.455 0,0.975 0.751,1.609 1.886,1.609 0.918,0 1.653,-0.257 2.721,-0.90799 l 0.868,1.38699 c -1.018,0.736 -2.337,1.12901 -3.656,1.12901 -2.32,0 -3.923,-1.42001 -3.923,-3.50901 0,-0.684 0.168,-1.249 0.485,-1.728 0.434,-0.668 1.185,-1.114 2.237,-1.421 l 1.234,-0.36 c 1.186,-0.342 1.72,-0.89 1.72,-1.763 0,-1.181 -0.851,-1.883 -2.27,-1.883 -1.168,0 -2.086,0.359 -3.121,0.976 l -0.735,-1.506 c 1.135,-0.702 2.47,-1.062 3.789,-1.062 2.955,0 4.507,1.832 4.507,3.8"
           id="path2544"
           style="fill:#db0031;fill-opacity:1;fill-rule:evenodd;stroke:none"
           inkscape:connector-curvature="0" /><path
           d="m 218.626,68.996 1.97,0 0,-11.846 -1.97,0 0,11.846 z"
           id="path2546"
           style="fill:#db0031;fill-opacity:1;fill-rule:nonzero;stroke:none"
           inkscape:connector-curvature="0" /><path
           d="m 231.443,68.996 -7.996,0 0,-1.643 2.921,0 0,-10.202 1.92,0 0,10.202 2.904,0 0.251,1.643"
           id="path2548"
           style="fill:#db0031;fill-opacity:1;fill-rule:evenodd;stroke:none"
           inkscape:connector-curvature="0" /><path
           d="m 242.139,68.996 -2.237,0 -1.769,-3.749 c -0.301,-0.65 -0.635,-1.489 -0.635,-1.489 0,0 -0.267,0.771 -0.617,1.52401 l -1.736,3.71399 -2.321,0 3.639,-7.052 0,-4.793 1.986,0 0,4.776 3.69,7.069"
           id="path2550"
           style="fill:#db0031;fill-opacity:1;fill-rule:evenodd;stroke:none"
           inkscape:connector-curvature="0" /><path
           d="m 253.465,58.452 c -1.97,0 -2.721,1.694 -2.721,4.741 0,2.842 0.735,4.451 2.671,4.451 2.07,0 2.654,-1.815 2.654,-4.708 0,-3.184 -0.884,-4.484 -2.604,-4.484 z m 0.05,-1.49 c 3.005,0 4.741,2.397 4.741,6.094 0,3.458 -1.569,6.11201 -4.824,6.11201 -2.888,0 -4.824,-2.192 -4.824,-6.09401 0,-3.51 1.62,-6.112 4.907,-6.112"
           id="path2552"
           style="fill:#db0031;fill-opacity:1;fill-rule:evenodd;stroke:none"
           inkscape:connector-curvature="0" /><path
           d="m 267.635,68.996 -6.11,0 0,-11.845 1.92,0 0,5.426 3.222,0 0,1.59201 -3.222,0 0,3.21799 3.956,0 0.234,1.609"
           id="path2554"
           style="fill:#db0031;fill-opacity:1;fill-rule:evenodd;stroke:none"
           inkscape:connector-curvature="0" /><path
           d="m 279.913,61.91 -2.838,0 c 0.268,0.787 1.452,5.049 1.452,5.049 l 0.017,0 c 0.084,-0.462 1.253,-4.793 1.369,-5.049 z m 3.472,-4.759 -3.689,11.862 -2.219,0 -3.79,-11.862 1.987,0 0.934,3.116 3.739,0 0.934,-3.116 2.104,0"
           id="path2556"
           style="fill:#db0031;fill-opacity:1;fill-rule:evenodd;stroke:none"
           inkscape:connector-curvature="0" /><path
           d="m 289.306,67.40501 c 0.751,0 1.251,-0.206 1.601,-0.582 0.319,-0.34301 0.468,-0.83901 0.468,-1.49001 0,-1.403 -0.65,-2.088 -2.069,-2.088 l -1.503,0 0,4.16001 1.503,0 z m 4.189,-1.95201 c 0,1.30101 -0.567,2.362 -1.586,2.97901 -0.635,0.39299 -1.252,0.56399 -2.937,0.56399 l -3.072,0 0,-11.845 1.903,0 0,4.519 1.953,0 c 2.086,0 3.739,1.455 3.739,3.783"
           id="path2558"
           style="fill:#db0031;fill-opacity:1;fill-rule:evenodd;stroke:none"
           inkscape:connector-curvature="0" /><path
           d="m 299.785,67.40501 c 0.752,0 1.252,-0.206 1.603,-0.582 0.317,-0.34301 0.467,-0.83901 0.467,-1.49001 0,-1.403 -0.651,-2.088 -2.07,-2.088 l -1.502,0 0,4.16001 1.502,0 z m 4.191,-1.95201 c 0,1.30101 -0.569,2.362 -1.586,2.97901 -0.634,0.39299 -1.252,0.56399 -2.938,0.56399 l -3.071,0 0,-11.845 1.902,0 0,4.519 1.953,0 c 2.086,0 3.74,1.455 3.74,3.783"
           id="path2560"
           style="fill:#db0031;fill-opacity:1;fill-rule:evenodd;stroke:none"
           inkscape:connector-curvature="0" /><path
           d="m 313.004,58.777 -4.274,0 0,10.219 -1.953,0 0,-11.845 5.91,0 0.317,1.626"
           id="path2562"
           style="fill:#db0031;fill-opacity:1;fill-rule:evenodd;stroke:none"
           inkscape:connector-curvature="0" /><path
           d="m 315.653,68.996 1.97,0 0,-11.846 -1.97,0 0,11.846 z"
           id="path2564"
           style="fill:#db0031;fill-opacity:1;fill-rule:nonzero;stroke:none"
           inkscape:connector-curvature="0" /><path
           d="m 328.37,57.151 0,1.678 -4.624,0 0,3.697 3.523,0 0,1.626 -3.556,0 0,3.235 4.239,0 0.251,1.609 -6.41,0 0,-11.845 6.577,0"
           id="path2566"
           style="fill:#db0031;fill-opacity:1;fill-rule:evenodd;stroke:none"
           inkscape:connector-curvature="0" /><path
           d="m 337.83,62.833 c 0,-2.687 -0.818,-4.073 -2.854,-4.073 l -1.269,0 0,8.679 1.219,0 c 1.035,0 1.636,-0.274 2.17,-1.027 0.6,-0.83899 0.734,-2.055 0.734,-3.579 z m 2.137,0.206 c 0,1.849 -0.401,3.27001 -1.252,4.28 -1.085,1.26601 -2.37,1.677 -4.541,1.677 l -2.403,0 0,-11.845 2.854,0 c 2.153,0 3.155,0.393 4.123,1.66 0.785,1.027 1.219,2.431 1.219,4.228"
           id="path2568"
           style="fill:#db0031;fill-opacity:1;fill-rule:evenodd;stroke:none"
           inkscape:connector-curvature="0" /><path
           d="m 355.58,60.728 c 0,1.781 -1.168,2.876 -2.838,3.372 l -1.368,0.412 c -1.135,0.342 -1.535,0.718 -1.535,1.455 0,0.975 0.75,1.609 1.886,1.609 0.918,0 1.652,-0.257 2.72,-0.90799 l 0.868,1.38699 c -1.018,0.736 -2.336,1.12901 -3.656,1.12901 -2.319,0 -3.922,-1.42001 -3.922,-3.50901 0,-0.684 0.167,-1.249 0.485,-1.728 0.433,-0.668 1.184,-1.114 2.236,-1.421 l 1.235,-0.36 c 1.185,-0.342 1.719,-0.89 1.719,-1.763 0,-1.181 -0.85,-1.883 -2.269,-1.883 -1.168,0 -2.087,0.359 -3.121,0.976 l -0.735,-1.506 c 1.135,-0.702 2.47,-1.062 3.788,-1.062 2.955,0 4.507,1.832 4.507,3.8"
           id="path2570"
           style="fill:#db0031;fill-opacity:1;fill-rule:evenodd;stroke:none"
           inkscape:connector-curvature="0" /><path
           d="m 366.344,58.006 -0.903,1.25 c -0.65,-0.531 -1.251,-0.753 -2.069,-0.753 -1.118,0 -2.069,0.548 -2.57,1.677 -0.301,0.668 -0.451,1.49 -0.451,2.945 0,1.404 0.2,2.396 0.601,3.115 0.501,0.907 1.319,1.421 2.304,1.421 0.717,0 1.351,-0.206 1.969,-0.668 l 0.885,1.30201 c -0.684,0.582 -1.753,0.92399 -2.872,0.92399 -1.802,0 -3.388,-1.027 -4.256,-2.722 -0.517,-0.99299 -0.767,-2.17399 -0.767,-3.595 0,-1.712 0.45,-3.15 1.318,-4.228 0.902,-1.113 2.12,-1.712 3.655,-1.712 1.236,0 2.253,0.343 3.156,1.044"
           id="path2572"
           style="fill:#db0031;fill-opacity:1;fill-rule:evenodd;stroke:none"
           inkscape:connector-curvature="0" /><path
           d="m 369.194,68.996 1.96899,0 0,-11.846 -1.96899,0 0,11.846 z"
           id="path2574"
           style="fill:#db0031;fill-opacity:1;fill-rule:nonzero;stroke:none"
           inkscape:connector-curvature="0" /><path
           d="m 381.91,57.151 0,1.678 -4.623,0 0,3.697 3.522,0 0,1.626 -3.555,0 0,3.235 4.239,0 0.25,1.609 -6.409,0 0,-11.845 6.576,0"
           id="path2576"
           style="fill:#db0031;fill-opacity:1;fill-rule:evenodd;stroke:none"
           inkscape:connector-curvature="0" /><path
           d="m 393.19,57.151 0,11.845 -1.82,0 0.034,-5.409 c 0,-1.078 0.117,-2.773 0.166,-3.372 l -0.049,-0.052 c -0.151,0.548 -0.651,1.952 -1.185,3.048 l -2.805,5.785 -2.17,0 0,-11.845 1.887,0 -0.066,5.734 c -0.018,1.045 -0.035,2.294 -0.118,3.287 l 0.05,0.05201 c 0.217,-0.70301 0.852,-2.192 1.469,-3.51001 l 2.587,-5.563 2.02,0"
           id="path2578"
           style="fill:#db0031;fill-opacity:1;fill-rule:evenodd;stroke:none"
           inkscape:connector-curvature="0" /><path
           d="m 404.62,58.006 -0.901,1.25 c -0.652,-0.531 -1.252,-0.753 -2.071,-0.753 -1.118,0 -2.069,0.548 -2.57,1.677 -0.3,0.668 -0.45,1.49 -0.45,2.945 0,1.404 0.2,2.396 0.601,3.115 0.5,0.907 1.318,1.421 2.303,1.421 0.718,0 1.353,-0.206 1.97,-0.668 l 0.885,1.30201 c -0.685,0.582 -1.753,0.92399 -2.871,0.92399 -1.803,0 -3.389,-1.027 -4.256,-2.722 -0.519,-0.99299 -0.769,-2.17399 -0.769,-3.595 0,-1.712 0.45,-3.15 1.319,-4.228 0.901,-1.113 2.12,-1.712 3.656,-1.712 1.234,0 2.253,0.343 3.154,1.044"
           id="path2580"
           style="fill:#db0031;fill-opacity:1;fill-rule:evenodd;stroke:none"
           inkscape:connector-curvature="0" /><path
           d="m 414.047,57.151 0,1.678 -4.623,0 0,3.697 3.521,0 0,1.626 -3.554,0 0,3.235 4.239,0 0.25,1.609 -6.409,0 0,-11.845 6.576,0"
           id="path2582"
           style="fill:#db0031;fill-opacity:1;fill-rule:evenodd;stroke:none"
           inkscape:connector-curvature="0" /><path
           d="m 424.826,60.728 c 0,1.781 -1.169,2.876 -2.838,3.372 l -1.369,0.412 c -1.135,0.342 -1.535,0.718 -1.535,1.455 0,0.975 0.751,1.609 1.886,1.609 0.918,0 1.653,-0.257 2.721,-0.90799 l 0.868,1.38699 c -1.018,0.736 -2.336,1.12901 -3.656,1.12901 -2.32,0 -3.922,-1.42001 -3.922,-3.50901 0,-0.684 0.166,-1.249 0.484,-1.728 0.434,-0.668 1.185,-1.114 2.236,-1.421 l 1.236,-0.36 c 1.185,-0.342 1.719,-0.89 1.719,-1.763 0,-1.181 -0.851,-1.883 -2.27,-1.883 -1.168,0 -2.086,0.359 -3.121,0.976 L 416.53,57.99 c 1.135,-0.702 2.471,-1.062 3.789,-1.062 2.954,0 4.507,1.832 4.507,3.8"
           id="path2584"
           style="fill:#db0031;fill-opacity:1;fill-rule:evenodd;stroke:none"
           inkscape:connector-curvature="0" /></g></g></g></svg>